<?xml version="1.0" encoding="UTF-8"?>
<svg xmlns="http://www.w3.org/2000/svg" xmlns:xlink="http://www.w3.org/1999/xlink" width="504pt" height="360pt" viewBox="0 0 504 360">
<defs>
<g>
<g id="glyph-0-0">
<path d="M 0.316406 -1.308594 L 1.289062 -1.410156 C 1.316406 -1.191406 1.398438 -1.015625 1.535156 -0.886719 C 1.671875 -0.757812 1.828125 -0.695312 2.007812 -0.695312 C 2.210938 -0.695312 2.382812 -0.777344 2.523438 -0.941406 C 2.667969 -1.109375 2.738281 -1.359375 2.738281 -1.691406 C 2.738281 -2.003906 2.667969 -2.238281 2.527344 -2.394531 C 2.386719 -2.550781 2.203125 -2.628906 1.980469 -2.628906 C 1.699219 -2.628906 1.449219 -2.503906 1.226562 -2.257812 L 0.433594 -2.371094 L 0.933594 -5.023438 L 3.515625 -5.023438 L 3.515625 -4.109375 L 1.675781 -4.109375 L 1.519531 -3.242188 C 1.738281 -3.351562 1.960938 -3.40625 2.1875 -3.40625 C 2.621094 -3.40625 2.988281 -3.25 3.289062 -2.933594 C 3.589844 -2.621094 3.742188 -2.210938 3.742188 -1.707031 C 3.742188 -1.289062 3.617188 -0.914062 3.375 -0.585938 C 3.042969 -0.136719 2.585938 0.0859375 1.996094 0.0859375 C 1.527344 0.0859375 1.144531 -0.0390625 0.847656 -0.292969 C 0.550781 -0.542969 0.375 -0.882812 0.316406 -1.308594 Z M 0.316406 -1.308594 "/>
</g>
<g id="glyph-0-1">
<path d="M 0.511719 0 L 0.511719 -0.976562 L 1.488281 -0.976562 L 1.488281 0 Z M 0.511719 0 "/>
</g>
<g id="glyph-0-2">
<path d="M 0.300781 -4.117188 L 0.300781 -5.023438 L 3.640625 -5.023438 L 3.640625 -4.3125 C 3.363281 -4.042969 3.085938 -3.652344 2.800781 -3.148438 C 2.515625 -2.640625 2.296875 -2.101562 2.148438 -1.53125 C 2 -0.960938 1.925781 -0.449219 1.925781 0 L 0.988281 0 C 1.003906 -0.703125 1.148438 -1.421875 1.421875 -2.152344 C 1.695312 -2.886719 2.0625 -3.539062 2.523438 -4.117188 Z M 0.300781 -4.117188 "/>
</g>
<g id="glyph-0-3">
<path d="M 0.265625 -1.351562 L 1.210938 -1.464844 C 1.242188 -1.226562 1.324219 -1.039062 1.457031 -0.914062 C 1.585938 -0.785156 1.746094 -0.722656 1.933594 -0.722656 C 2.136719 -0.722656 2.304688 -0.800781 2.445312 -0.953125 C 2.582031 -1.105469 2.648438 -1.3125 2.648438 -1.570312 C 2.648438 -1.816406 2.585938 -2.011719 2.453125 -2.152344 C 2.320312 -2.296875 2.160156 -2.367188 1.96875 -2.367188 C 1.84375 -2.367188 1.695312 -2.34375 1.519531 -2.296875 L 1.628906 -3.089844 C 1.894531 -3.085938 2.09375 -3.140625 2.234375 -3.261719 C 2.371094 -3.382812 2.441406 -3.546875 2.441406 -3.746094 C 2.441406 -3.917969 2.390625 -4.054688 2.289062 -4.15625 C 2.1875 -4.257812 2.050781 -4.308594 1.882812 -4.308594 C 1.714844 -4.308594 1.574219 -4.253906 1.457031 -4.136719 C 1.335938 -4.019531 1.265625 -3.851562 1.238281 -3.628906 L 0.339844 -3.78125 C 0.402344 -4.089844 0.496094 -4.335938 0.625 -4.519531 C 0.75 -4.703125 0.925781 -4.847656 1.152344 -4.953125 C 1.378906 -5.058594 1.628906 -5.113281 1.910156 -5.113281 C 2.390625 -5.113281 2.773438 -4.960938 3.0625 -4.652344 C 3.300781 -4.402344 3.421875 -4.121094 3.421875 -3.808594 C 3.421875 -3.359375 3.175781 -3.003906 2.6875 -2.738281 C 2.980469 -2.675781 3.214844 -2.535156 3.386719 -2.316406 C 3.5625 -2.097656 3.648438 -1.835938 3.648438 -1.527344 C 3.648438 -1.082031 3.488281 -0.699219 3.160156 -0.386719 C 2.835938 -0.0703125 2.429688 0.0859375 1.941406 0.0859375 C 1.480469 0.0859375 1.097656 -0.046875 0.796875 -0.3125 C 0.492188 -0.574219 0.316406 -0.921875 0.265625 -1.351562 Z M 0.265625 -1.351562 "/>
</g>
<g id="glyph-1-0">
<path d="M 5.230469 -3.578125 C 5.230469 -3 5.1875 -2.484375 5.101562 -2.03125 C 5.011719 -1.578125 4.875 -1.191406 4.683594 -0.875 C 4.496094 -0.558594 4.25 -0.316406 3.945312 -0.148438 C 3.640625 0.015625 3.277344 0.101562 2.851562 0.101562 C 2.316406 0.101562 1.875 -0.046875 1.523438 -0.339844 C 1.175781 -0.632812 0.914062 -1.054688 0.746094 -1.605469 C 0.574219 -2.15625 0.488281 -2.8125 0.488281 -3.578125 C 0.488281 -4.351562 0.566406 -5.011719 0.726562 -5.558594 C 0.882812 -6.105469 1.132812 -6.523438 1.480469 -6.816406 C 1.828125 -7.105469 2.285156 -7.25 2.851562 -7.25 C 3.382812 -7.25 3.828125 -7.105469 4.179688 -6.816406 C 4.535156 -6.523438 4.796875 -6.105469 4.96875 -5.558594 C 5.144531 -5.011719 5.230469 -4.351562 5.230469 -3.578125 M 1.371094 -3.578125 C 1.371094 -2.925781 1.417969 -2.382812 1.515625 -1.949219 C 1.613281 -1.515625 1.769531 -1.191406 1.984375 -0.976562 C 2.203125 -0.757812 2.488281 -0.648438 2.851562 -0.648438 C 3.210938 -0.648438 3.5 -0.757812 3.714844 -0.96875 C 3.933594 -1.183594 4.089844 -1.507812 4.191406 -1.945312 C 4.289062 -2.382812 4.339844 -2.925781 4.339844 -3.578125 C 4.339844 -4.234375 4.289062 -4.773438 4.191406 -5.203125 C 4.089844 -5.636719 3.933594 -5.957031 3.714844 -6.175781 C 3.5 -6.390625 3.210938 -6.5 2.851562 -6.5 C 2.488281 -6.5 2.203125 -6.390625 1.984375 -6.175781 C 1.769531 -5.957031 1.613281 -5.636719 1.515625 -5.203125 C 1.417969 -4.773438 1.371094 -4.234375 1.371094 -3.578125 Z M 1.371094 -3.578125 "/>
</g>
<g id="glyph-1-1">
<path d="M 0.71875 -0.539062 C 0.71875 -0.785156 0.78125 -0.960938 0.898438 -1.058594 C 1.019531 -1.160156 1.164062 -1.210938 1.328125 -1.210938 C 1.503906 -1.210938 1.652344 -1.160156 1.773438 -1.058594 C 1.898438 -0.960938 1.960938 -0.785156 1.960938 -0.539062 C 1.960938 -0.300781 1.898438 -0.125 1.773438 -0.0195312 C 1.652344 0.0859375 1.503906 0.140625 1.328125 0.140625 C 1.164062 0.140625 1.019531 0.0859375 0.898438 -0.0195312 C 0.78125 -0.125 0.71875 -0.300781 0.71875 -0.539062 Z M 0.71875 -0.539062 "/>
</g>
<g id="glyph-1-2">
<path d="M 5.199219 0 L 0.480469 0 L 0.480469 -0.730469 L 2.351562 -2.621094 C 2.710938 -2.980469 3.011719 -3.300781 3.261719 -3.578125 C 3.507812 -3.859375 3.691406 -4.136719 3.820312 -4.40625 C 3.945312 -4.675781 4.011719 -4.96875 4.011719 -5.289062 C 4.011719 -5.683594 3.894531 -5.980469 3.660156 -6.183594 C 3.425781 -6.386719 3.125 -6.488281 2.75 -6.488281 C 2.402344 -6.488281 2.097656 -6.429688 1.835938 -6.308594 C 1.570312 -6.191406 1.304688 -6.023438 1.03125 -5.808594 L 0.558594 -6.398438 C 0.746094 -6.558594 0.953125 -6.703125 1.175781 -6.828125 C 1.398438 -6.957031 1.640625 -7.058594 1.90625 -7.128906 C 2.167969 -7.203125 2.449219 -7.238281 2.75 -7.238281 C 3.195312 -7.238281 3.578125 -7.164062 3.898438 -7.011719 C 4.21875 -6.855469 4.46875 -6.636719 4.644531 -6.355469 C 4.820312 -6.070312 4.910156 -5.734375 4.910156 -5.339844 C 4.910156 -4.964844 4.832031 -4.617188 4.679688 -4.289062 C 4.527344 -3.964844 4.3125 -3.640625 4.039062 -3.324219 C 3.765625 -3.007812 3.445312 -2.671875 3.078125 -2.308594 L 1.589844 -0.839844 L 1.589844 -0.800781 L 5.199219 -0.800781 Z M 5.199219 0 "/>
</g>
<g id="glyph-1-3">
<path d="M 2.75 -4.378906 C 3.238281 -4.378906 3.660156 -4.296875 4.019531 -4.128906 C 4.378906 -3.964844 4.660156 -3.726562 4.855469 -3.414062 C 5.050781 -3.105469 5.148438 -2.726562 5.148438 -2.28125 C 5.148438 -1.785156 5.042969 -1.363281 4.828125 -1.003906 C 4.617188 -0.648438 4.3125 -0.375 3.914062 -0.183594 C 3.519531 0.00390625 3.039062 0.101562 2.480469 0.101562 C 2.113281 0.101562 1.769531 0.0664062 1.445312 0 C 1.121094 -0.0664062 0.851562 -0.164062 0.628906 -0.289062 L 0.628906 -1.121094 C 0.871094 -0.972656 1.160156 -0.859375 1.503906 -0.773438 C 1.847656 -0.691406 2.175781 -0.648438 2.488281 -0.648438 C 2.84375 -0.648438 3.152344 -0.703125 3.414062 -0.816406 C 3.679688 -0.925781 3.882812 -1.09375 4.03125 -1.324219 C 4.175781 -1.554688 4.25 -1.84375 4.25 -2.191406 C 4.25 -2.65625 4.105469 -3.015625 3.820312 -3.265625 C 3.535156 -3.515625 3.078125 -3.640625 2.460938 -3.640625 C 2.273438 -3.640625 2.058594 -3.625 1.820312 -3.589844 C 1.578125 -3.558594 1.386719 -3.523438 1.238281 -3.488281 L 0.800781 -3.769531 L 1.070312 -7.140625 L 4.648438 -7.140625 L 4.648438 -6.339844 L 1.820312 -6.339844 L 1.648438 -4.269531 C 1.761719 -4.289062 1.917969 -4.3125 2.109375 -4.339844 C 2.304688 -4.367188 2.515625 -4.378906 2.75 -4.378906 Z M 2.75 -4.378906 "/>
</g>
<g id="glyph-1-4">
<path d="M 1.359375 0 L 4.289062 -6.339844 L 0.441406 -6.339844 L 0.441406 -7.140625 L 5.230469 -7.140625 L 5.230469 -6.460938 L 2.328125 0 Z M 1.359375 0 "/>
</g>
<g id="glyph-1-5">
<path d="M 3.550781 0 L 2.691406 0 L 2.691406 -4.988281 C 2.691406 -5.183594 2.691406 -5.347656 2.695312 -5.480469 C 2.699219 -5.613281 2.703125 -5.738281 2.710938 -5.855469 C 2.714844 -5.972656 2.722656 -6.09375 2.730469 -6.21875 C 2.625 -6.113281 2.527344 -6.023438 2.441406 -5.949219 C 2.351562 -5.875 2.242188 -5.785156 2.109375 -5.671875 L 1.351562 -5.050781 L 0.890625 -5.640625 L 2.820312 -7.140625 L 3.550781 -7.140625 Z M 3.550781 0 "/>
</g>
<g id="glyph-1-6">
<path d="M 4.929688 -5.46875 C 4.929688 -5.148438 4.871094 -4.875 4.75 -4.640625 C 4.628906 -4.40625 4.457031 -4.214844 4.234375 -4.070312 C 4.011719 -3.921875 3.75 -3.820312 3.449219 -3.761719 L 3.449219 -3.71875 C 4.023438 -3.652344 4.449219 -3.472656 4.730469 -3.179688 C 5.011719 -2.886719 5.148438 -2.503906 5.148438 -2.03125 C 5.148438 -1.617188 5.054688 -1.25 4.859375 -0.925781 C 4.667969 -0.601562 4.367188 -0.351562 3.964844 -0.171875 C 3.5625 0.0117188 3.042969 0.101562 2.410156 0.101562 C 2.035156 0.101562 1.691406 0.0703125 1.371094 0.015625 C 1.050781 -0.0429688 0.742188 -0.144531 0.449219 -0.289062 L 0.449219 -1.109375 C 0.75 -0.964844 1.074219 -0.847656 1.421875 -0.765625 C 1.765625 -0.683594 2.101562 -0.640625 2.421875 -0.640625 C 3.058594 -0.640625 3.523438 -0.765625 3.804688 -1.015625 C 4.089844 -1.265625 4.230469 -1.609375 4.230469 -2.050781 C 4.230469 -2.351562 4.152344 -2.589844 3.996094 -2.773438 C 3.839844 -2.957031 3.609375 -3.09375 3.308594 -3.179688 C 3.011719 -3.265625 2.648438 -3.308594 2.230469 -3.308594 L 1.539062 -3.308594 L 1.539062 -4.058594 L 2.238281 -4.058594 C 2.632812 -4.058594 2.960938 -4.117188 3.226562 -4.230469 C 3.488281 -4.34375 3.6875 -4.5 3.824219 -4.703125 C 3.960938 -4.910156 4.03125 -5.144531 4.03125 -5.410156 C 4.03125 -5.757812 3.914062 -6.023438 3.679688 -6.214844 C 3.445312 -6.40625 3.128906 -6.5 2.730469 -6.5 C 2.476562 -6.5 2.246094 -6.476562 2.039062 -6.425781 C 1.832031 -6.375 1.640625 -6.304688 1.464844 -6.214844 C 1.289062 -6.125 1.109375 -6.019531 0.929688 -5.898438 L 0.488281 -6.5 C 0.742188 -6.699219 1.058594 -6.875 1.433594 -7.019531 C 1.8125 -7.167969 2.238281 -7.238281 2.71875 -7.238281 C 3.464844 -7.238281 4.023438 -7.074219 4.386719 -6.738281 C 4.75 -6.40625 4.929688 -5.984375 4.929688 -5.46875 Z M 4.929688 -5.46875 "/>
</g>
<g id="glyph-1-7">
<path d="M 5.519531 -1.621094 L 4.480469 -1.621094 L 4.480469 0 L 3.628906 0 L 3.628906 -1.621094 L 0.210938 -1.621094 L 0.210938 -2.371094 L 3.570312 -7.179688 L 4.480469 -7.179688 L 4.480469 -2.410156 L 5.519531 -2.410156 L 5.519531 -1.621094 M 3.628906 -4.660156 C 3.628906 -4.832031 3.632812 -4.992188 3.636719 -5.136719 C 3.636719 -5.277344 3.644531 -5.414062 3.648438 -5.539062 C 3.65625 -5.667969 3.660156 -5.789062 3.664062 -5.90625 C 3.667969 -6.023438 3.671875 -6.132812 3.679688 -6.238281 L 3.640625 -6.238281 C 3.585938 -6.113281 3.519531 -5.976562 3.441406 -5.828125 C 3.359375 -5.683594 3.285156 -5.558594 3.210938 -5.460938 L 1.070312 -2.410156 L 3.628906 -2.410156 Z M 3.628906 -4.660156 "/>
</g>
<g id="glyph-1-8">
<path d="M 0.550781 -3.050781 C 0.550781 -3.464844 0.578125 -3.871094 0.636719 -4.269531 C 0.691406 -4.671875 0.789062 -5.046875 0.929688 -5.40625 C 1.070312 -5.761719 1.261719 -6.078125 1.511719 -6.355469 C 1.757812 -6.632812 2.066406 -6.847656 2.445312 -7.003906 C 2.820312 -7.160156 3.28125 -7.238281 3.820312 -7.238281 C 3.960938 -7.238281 4.113281 -7.234375 4.285156 -7.21875 C 4.453125 -7.207031 4.59375 -7.183594 4.699219 -7.148438 L 4.699219 -6.398438 C 4.578125 -6.441406 4.445312 -6.46875 4.296875 -6.488281 C 4.144531 -6.511719 3.992188 -6.519531 3.839844 -6.519531 C 3.378906 -6.519531 2.996094 -6.441406 2.691406 -6.289062 C 2.382812 -6.136719 2.140625 -5.925781 1.964844 -5.660156 C 1.789062 -5.394531 1.660156 -5.085938 1.578125 -4.738281 C 1.5 -4.394531 1.449219 -4.023438 1.429688 -3.628906 L 1.488281 -3.628906 C 1.589844 -3.789062 1.714844 -3.933594 1.871094 -4.058594 C 2.023438 -4.1875 2.207031 -4.285156 2.425781 -4.359375 C 2.640625 -4.433594 2.894531 -4.46875 3.179688 -4.46875 C 3.59375 -4.46875 3.953125 -4.386719 4.265625 -4.214844 C 4.574219 -4.046875 4.816406 -3.796875 4.988281 -3.476562 C 5.164062 -3.152344 5.25 -2.761719 5.25 -2.300781 C 5.25 -1.808594 5.15625 -1.378906 4.96875 -1.019531 C 4.785156 -0.660156 4.523438 -0.382812 4.183594 -0.191406 C 3.847656 0.00390625 3.445312 0.101562 2.980469 0.101562 C 2.640625 0.101562 2.324219 0.0351562 2.03125 -0.0898438 C 1.738281 -0.214844 1.476562 -0.410156 1.253906 -0.671875 C 1.03125 -0.929688 0.859375 -1.257812 0.734375 -1.65625 C 0.613281 -2.050781 0.550781 -2.515625 0.550781 -3.050781 M 2.96875 -0.640625 C 3.390625 -0.640625 3.730469 -0.773438 3.988281 -1.046875 C 4.25 -1.316406 4.378906 -1.734375 4.378906 -2.300781 C 4.378906 -2.753906 4.265625 -3.113281 4.035156 -3.378906 C 3.804688 -3.648438 3.460938 -3.78125 3 -3.78125 C 2.6875 -3.78125 2.414062 -3.714844 2.179688 -3.585938 C 1.945312 -3.453125 1.765625 -3.289062 1.636719 -3.089844 C 1.503906 -2.890625 1.441406 -2.683594 1.441406 -2.46875 C 1.441406 -2.25 1.472656 -2.035156 1.535156 -1.820312 C 1.597656 -1.605469 1.695312 -1.410156 1.824219 -1.230469 C 1.953125 -1.050781 2.113281 -0.90625 2.304688 -0.800781 C 2.496094 -0.691406 2.714844 -0.640625 2.96875 -0.640625 Z M 2.96875 -0.640625 "/>
</g>
<g id="glyph-2-0">
<path d="M -7.140625 -6 L 0 -3.449219 L 0 -2.550781 L -7.140625 0 L -7.140625 -0.941406 L -2.558594 -2.550781 C -2.367188 -2.625 -2.179688 -2.6875 -2 -2.738281 C -1.820312 -2.792969 -1.648438 -2.839844 -1.484375 -2.886719 C -1.320312 -2.929688 -1.160156 -2.964844 -1 -3 C -1.160156 -3.035156 -1.324219 -3.070312 -1.488281 -3.113281 C -1.65625 -3.160156 -1.828125 -3.207031 -2.011719 -3.265625 C -2.191406 -3.320312 -2.378906 -3.382812 -2.578125 -3.449219 L -7.140625 -5.050781 Z M -7.140625 -6 "/>
</g>
<g id="glyph-2-1">
<path d="M -5.449219 -2.878906 C -5.449219 -3.535156 -5.308594 -4.015625 -5.019531 -4.328125 C -4.734375 -4.644531 -4.277344 -4.800781 -3.648438 -4.800781 L 0 -4.800781 L 0 -4.160156 L -0.761719 -3.988281 L -0.761719 -3.949219 C -0.566406 -3.796875 -0.40625 -3.636719 -0.273438 -3.476562 C -0.144531 -3.3125 -0.0507812 -3.125 0.0117188 -2.914062 C 0.0703125 -2.703125 0.101562 -2.449219 0.101562 -2.148438 C 0.101562 -1.828125 0.0429688 -1.542969 -0.0703125 -1.285156 C -0.183594 -1.027344 -0.359375 -0.828125 -0.59375 -0.679688 C -0.832031 -0.535156 -1.128906 -0.460938 -1.488281 -0.460938 C -2.023438 -0.460938 -2.433594 -0.671875 -2.726562 -1.089844 C -3.015625 -1.511719 -3.171875 -2.15625 -3.199219 -3.03125 L -3.230469 -3.941406 L -3.550781 -3.941406 C -3.996094 -3.941406 -4.308594 -3.84375 -4.480469 -3.648438 C -4.652344 -3.457031 -4.738281 -3.183594 -4.738281 -2.828125 C -4.738281 -2.550781 -4.699219 -2.285156 -4.613281 -2.03125 C -4.53125 -1.777344 -4.4375 -1.539062 -4.328125 -1.320312 L -4.988281 -1.050781 C -5.117188 -1.285156 -5.226562 -1.558594 -5.316406 -1.878906 C -5.40625 -2.199219 -5.449219 -2.535156 -5.449219 -2.878906 M -2.589844 -3.140625 C -2.5625 -2.472656 -2.457031 -2.011719 -2.269531 -1.753906 C -2.082031 -1.5 -1.820312 -1.371094 -1.480469 -1.371094 C -1.179688 -1.371094 -0.960938 -1.460938 -0.820312 -1.644531 C -0.679688 -1.828125 -0.609375 -2.0625 -0.609375 -2.351562 C -0.609375 -2.804688 -0.734375 -3.179688 -0.984375 -3.480469 C -1.234375 -3.78125 -1.621094 -3.929688 -2.140625 -3.929688 L -2.621094 -3.929688 Z M -2.589844 -3.140625 "/>
</g>
<g id="glyph-2-2">
<path d="M -5.460938 -3.351562 C -5.460938 -3.449219 -5.453125 -3.558594 -5.445312 -3.675781 C -5.433594 -3.792969 -5.421875 -3.894531 -5.398438 -3.980469 L -4.589844 -3.871094 C -4.609375 -3.785156 -4.625 -3.6875 -4.640625 -3.585938 C -4.652344 -3.480469 -4.660156 -3.382812 -4.660156 -3.289062 C -4.660156 -3.082031 -4.617188 -2.886719 -4.53125 -2.699219 C -4.441406 -2.511719 -4.320312 -2.347656 -4.164062 -2.199219 C -4.007812 -2.054688 -3.820312 -1.9375 -3.601562 -1.855469 C -3.378906 -1.773438 -3.132812 -1.730469 -2.859375 -1.730469 L 0 -1.730469 L 0 -0.851562 L -5.359375 -0.851562 L -5.359375 -1.570312 L -4.378906 -1.671875 L -4.378906 -1.710938 C -4.578125 -1.824219 -4.761719 -1.960938 -4.925781 -2.121094 C -5.089844 -2.28125 -5.21875 -2.464844 -5.316406 -2.671875 C -5.410156 -2.875 -5.460938 -3.101562 -5.460938 -3.351562 Z M -5.460938 -3.351562 "/>
</g>
<g id="glyph-2-3">
<path d="M -5.359375 -1.730469 L 0 -1.730469 L 0 -0.851562 L -5.359375 -0.851562 L -5.359375 -1.730469 M -7.371094 -1.300781 C -7.371094 -1.433594 -7.324219 -1.550781 -7.234375 -1.65625 C -7.144531 -1.757812 -7.003906 -1.808594 -6.808594 -1.808594 C -6.625 -1.808594 -6.484375 -1.757812 -6.390625 -1.65625 C -6.296875 -1.550781 -6.25 -1.433594 -6.25 -1.300781 C -6.25 -1.152344 -6.296875 -1.03125 -6.390625 -0.929688 C -6.484375 -0.828125 -6.625 -0.78125 -6.808594 -0.78125 C -7.003906 -0.78125 -7.144531 -0.828125 -7.234375 -0.929688 C -7.324219 -1.03125 -7.371094 -1.152344 -7.371094 -1.300781 Z M -7.371094 -1.300781 "/>
</g>
<g id="glyph-2-4">
<path d="M 0.101562 -3 C 0.101562 -2.527344 0.00390625 -2.105469 -0.191406 -1.734375 C -0.382812 -1.363281 -0.683594 -1.074219 -1.089844 -0.863281 C -1.496094 -0.65625 -2.015625 -0.550781 -2.648438 -0.550781 C -3.308594 -0.550781 -3.847656 -0.660156 -4.261719 -0.878906 C -4.671875 -1.101562 -4.976562 -1.398438 -5.171875 -1.773438 C -5.363281 -2.152344 -5.460938 -2.578125 -5.460938 -3.058594 C -5.460938 -3.332031 -5.433594 -3.597656 -5.375 -3.851562 C -5.316406 -4.101562 -5.25 -4.308594 -5.171875 -4.46875 L -4.441406 -4.199219 C -4.5 -4.039062 -4.558594 -3.851562 -4.609375 -3.640625 C -4.664062 -3.425781 -4.691406 -3.226562 -4.691406 -3.039062 C -4.691406 -2.679688 -4.613281 -2.382812 -4.460938 -2.148438 C -4.308594 -1.917969 -4.078125 -1.742188 -3.78125 -1.628906 C -3.480469 -1.515625 -3.105469 -1.460938 -2.660156 -1.460938 C -2.234375 -1.460938 -1.871094 -1.515625 -1.570312 -1.628906 C -1.269531 -1.742188 -1.042969 -1.914062 -0.890625 -2.140625 C -0.738281 -2.367188 -0.660156 -2.648438 -0.660156 -2.988281 C -0.660156 -3.285156 -0.691406 -3.542969 -0.75 -3.765625 C -0.808594 -3.988281 -0.882812 -4.191406 -0.96875 -4.378906 L -0.191406 -4.378906 C -0.0976562 -4.199219 -0.0234375 -4 0.0234375 -3.785156 C 0.0742188 -3.566406 0.101562 -3.308594 0.101562 -3 Z M 0.101562 -3 "/>
</g>
<g id="glyph-2-5">
<path d="M -2.691406 -5.511719 C -2.242188 -5.511719 -1.847656 -5.453125 -1.503906 -5.335938 C -1.160156 -5.21875 -0.871094 -5.050781 -0.628906 -4.835938 C -0.390625 -4.617188 -0.207031 -4.355469 -0.0859375 -4.046875 C 0.0390625 -3.734375 0.101562 -3.390625 0.101562 -3.011719 C 0.101562 -2.65625 0.0390625 -2.328125 -0.0859375 -2.03125 C -0.207031 -1.730469 -0.390625 -1.46875 -0.628906 -1.25 C -0.871094 -1.03125 -1.160156 -0.859375 -1.503906 -0.734375 C -1.847656 -0.613281 -2.242188 -0.550781 -2.691406 -0.550781 C -3.285156 -0.550781 -3.785156 -0.648438 -4.195312 -0.851562 C -4.605469 -1.050781 -4.917969 -1.335938 -5.136719 -1.710938 C -5.351562 -2.082031 -5.460938 -2.527344 -5.460938 -3.039062 C -5.460938 -3.527344 -5.351562 -3.953125 -5.136719 -4.324219 C -4.917969 -4.695312 -4.605469 -4.984375 -4.195312 -5.195312 C -3.785156 -5.40625 -3.285156 -5.511719 -2.691406 -5.511719 M -2.691406 -1.460938 C -2.269531 -1.460938 -1.90625 -1.515625 -1.59375 -1.625 C -1.285156 -1.734375 -1.046875 -1.90625 -0.878906 -2.140625 C -0.714844 -2.375 -0.628906 -2.671875 -0.628906 -3.03125 C -0.628906 -3.390625 -0.714844 -3.6875 -0.878906 -3.921875 C -1.046875 -4.152344 -1.285156 -4.324219 -1.59375 -4.433594 C -1.90625 -4.546875 -2.269531 -4.601562 -2.691406 -4.601562 C -3.117188 -4.601562 -3.480469 -4.542969 -3.78125 -4.429688 C -4.078125 -4.316406 -4.3125 -4.144531 -4.476562 -3.914062 C -4.636719 -3.683594 -4.71875 -3.386719 -4.71875 -3.019531 C -4.71875 -2.472656 -4.539062 -2.078125 -4.179688 -1.828125 C -3.820312 -1.582031 -3.324219 -1.460938 -2.691406 -1.460938 M -7.558594 -4.511719 C -7.464844 -4.449219 -7.351562 -4.363281 -7.21875 -4.25 C -7.085938 -4.136719 -6.949219 -4.011719 -6.804688 -3.875 C -6.660156 -3.738281 -6.523438 -3.601562 -6.394531 -3.464844 C -6.265625 -3.328125 -6.152344 -3.199219 -6.058594 -3.078125 L -6.058594 -2.5 L -6.179688 -2.5 C -6.308594 -2.601562 -6.457031 -2.707031 -6.628906 -2.824219 C -6.804688 -2.941406 -6.980469 -3.058594 -7.164062 -3.171875 C -7.347656 -3.285156 -7.511719 -3.375 -7.660156 -3.449219 L -7.660156 -4.511719 Z M -7.558594 -4.511719 "/>
</g>
<g id="glyph-2-6">
<path d="M -5.460938 -3.429688 C -5.460938 -4.070312 -5.304688 -4.554688 -4.996094 -4.878906 C -4.683594 -5.207031 -4.183594 -5.371094 -3.488281 -5.371094 L 0 -5.371094 L 0 -4.5 L -3.429688 -4.5 C -3.863281 -4.5 -4.1875 -4.402344 -4.398438 -4.210938 C -4.613281 -4.015625 -4.71875 -3.714844 -4.71875 -3.300781 C -4.71875 -2.707031 -4.554688 -2.296875 -4.21875 -2.070312 C -3.886719 -1.84375 -3.40625 -1.730469 -2.78125 -1.730469 L 0 -1.730469 L 0 -0.851562 L -5.359375 -0.851562 L -5.359375 -1.558594 L -4.628906 -1.691406 L -4.628906 -1.738281 C -4.816406 -1.859375 -4.972656 -2.007812 -5.09375 -2.183594 C -5.21875 -2.363281 -5.308594 -2.558594 -5.371094 -2.769531 C -5.429688 -2.984375 -5.460938 -3.203125 -5.460938 -3.429688 Z M -5.460938 -3.429688 "/>
</g>
<g id="glyph-2-7">
</g>
<g id="glyph-2-8">
<path d="M -1.910156 -5.019531 C -1.484375 -5.019531 -1.121094 -4.917969 -0.824219 -4.710938 C -0.527344 -4.503906 -0.300781 -4.207031 -0.140625 -3.824219 C 0.0195312 -3.441406 0.101562 -2.988281 0.101562 -2.46875 C 0.101562 -2.203125 0.0859375 -1.949219 0.0585938 -1.703125 C 0.0351562 -1.460938 -0.00390625 -1.238281 -0.0546875 -1.039062 C -0.105469 -0.839844 -0.167969 -0.664062 -0.238281 -0.511719 L -1.101562 -0.511719 C -0.992188 -0.75 -0.898438 -1.046875 -0.808594 -1.40625 C -0.722656 -1.761719 -0.679688 -2.128906 -0.679688 -2.511719 C -0.679688 -2.863281 -0.726562 -3.160156 -0.820312 -3.398438 C -0.914062 -3.640625 -1.046875 -3.820312 -1.21875 -3.941406 C -1.394531 -4.058594 -1.597656 -4.121094 -1.828125 -4.121094 C -2.0625 -4.121094 -2.261719 -4.070312 -2.421875 -3.96875 C -2.578125 -3.871094 -2.726562 -3.699219 -2.863281 -3.453125 C -3 -3.210938 -3.148438 -2.875 -3.300781 -2.441406 C -3.414062 -2.132812 -3.535156 -1.863281 -3.664062 -1.636719 C -3.796875 -1.40625 -3.941406 -1.214844 -4.109375 -1.058594 C -4.277344 -0.90625 -4.464844 -0.792969 -4.679688 -0.714844 C -4.894531 -0.636719 -5.140625 -0.601562 -5.421875 -0.601562 C -5.800781 -0.601562 -6.125 -0.695312 -6.394531 -0.890625 C -6.664062 -1.082031 -6.875 -1.351562 -7.019531 -1.695312 C -7.167969 -2.039062 -7.238281 -2.433594 -7.238281 -2.878906 C -7.238281 -3.273438 -7.203125 -3.632812 -7.128906 -3.960938 C -7.058594 -4.285156 -6.960938 -4.582031 -6.839844 -4.851562 L -6.070312 -4.570312 C -6.175781 -4.324219 -6.265625 -4.054688 -6.339844 -3.765625 C -6.414062 -3.476562 -6.449219 -3.171875 -6.449219 -2.859375 C -6.449219 -2.558594 -6.40625 -2.308594 -6.320312 -2.109375 C -6.234375 -1.910156 -6.113281 -1.761719 -5.953125 -1.660156 C -5.796875 -1.558594 -5.617188 -1.511719 -5.410156 -1.511719 C -5.171875 -1.511719 -4.96875 -1.558594 -4.808594 -1.660156 C -4.648438 -1.761719 -4.507812 -1.921875 -4.378906 -2.148438 C -4.253906 -2.375 -4.117188 -2.683594 -3.96875 -3.070312 C -3.816406 -3.488281 -3.652344 -3.84375 -3.476562 -4.136719 C -3.296875 -4.425781 -3.085938 -4.644531 -2.839844 -4.796875 C -2.59375 -4.945312 -2.285156 -5.019531 -1.910156 -5.019531 Z M -1.910156 -5.019531 "/>
</g>
<g id="glyph-2-9">
<path d="M 0 -1.730469 L 0 -0.851562 L -7.601562 -0.851562 L -7.601562 -1.730469 Z M 0 -1.730469 "/>
</g>
<g id="glyph-2-10">
<path d="M -7.140625 -2.941406 C -7.140625 -3.535156 -7.066406 -4.023438 -6.914062 -4.40625 C -6.765625 -4.789062 -6.539062 -5.074219 -6.238281 -5.261719 C -5.941406 -5.445312 -5.5625 -5.539062 -5.109375 -5.539062 C -4.730469 -5.539062 -4.414062 -5.46875 -4.160156 -5.328125 C -3.90625 -5.191406 -3.703125 -5.011719 -3.554688 -4.796875 C -3.40625 -4.578125 -3.285156 -4.351562 -3.199219 -4.109375 L 0 -6.070312 L 0 -5.019531 L -2.949219 -3.289062 L -2.949219 -1.871094 L 0 -1.871094 L 0 -0.96875 L -7.140625 -0.96875 L -7.140625 -2.941406 M -6.359375 -2.890625 L -6.359375 -1.871094 L -3.710938 -1.871094 L -3.710938 -2.941406 C -3.710938 -3.519531 -3.824219 -3.941406 -4.054688 -4.210938 C -4.285156 -4.476562 -4.625 -4.609375 -5.070312 -4.609375 C -5.382812 -4.609375 -5.632812 -4.546875 -5.820312 -4.425781 C -6.007812 -4.300781 -6.144531 -4.113281 -6.230469 -3.859375 C -6.316406 -3.605469 -6.359375 -3.285156 -6.359375 -2.890625 Z M -6.359375 -2.890625 "/>
</g>
<g id="glyph-2-11">
<path d="M -5.460938 -2.921875 C -5.460938 -3.378906 -5.359375 -3.773438 -5.160156 -4.105469 C -4.960938 -4.433594 -4.679688 -4.6875 -4.316406 -4.863281 C -3.953125 -5.042969 -3.527344 -5.128906 -3.039062 -5.128906 L -2.511719 -5.128906 L -2.511719 -1.460938 C -1.902344 -1.472656 -1.441406 -1.628906 -1.125 -1.925781 C -0.808594 -2.222656 -0.648438 -2.636719 -0.648438 -3.171875 C -0.648438 -3.511719 -0.683594 -3.8125 -0.746094 -4.074219 C -0.808594 -4.339844 -0.898438 -4.609375 -1.019531 -4.890625 L -0.25 -4.890625 C -0.128906 -4.617188 -0.0429688 -4.347656 0.015625 -4.078125 C 0.0703125 -3.8125 0.101562 -3.496094 0.101562 -3.128906 C 0.101562 -2.625 -0.00390625 -2.175781 -0.210938 -1.785156 C -0.417969 -1.394531 -0.726562 -1.089844 -1.136719 -0.875 C -1.546875 -0.660156 -2.046875 -0.550781 -2.640625 -0.550781 C -3.226562 -0.550781 -3.730469 -0.648438 -4.148438 -0.84375 C -4.570312 -1.042969 -4.894531 -1.316406 -5.121094 -1.675781 C -5.347656 -2.03125 -5.460938 -2.445312 -5.460938 -2.921875 M -4.738281 -2.910156 C -4.738281 -2.488281 -4.605469 -2.160156 -4.335938 -1.914062 C -4.066406 -1.671875 -3.691406 -1.527344 -3.210938 -1.480469 L -3.210938 -4.210938 C -3.515625 -4.210938 -3.785156 -4.164062 -4.011719 -4.070312 C -4.238281 -3.976562 -4.414062 -3.835938 -4.546875 -3.644531 C -4.675781 -3.453125 -4.738281 -3.210938 -4.738281 -2.910156 Z M -4.738281 -2.910156 "/>
</g>
<g id="glyph-2-12">
<path d="M -2.738281 -0.398438 C -3.285156 -0.398438 -3.820312 -0.453125 -4.339844 -0.554688 C -4.859375 -0.660156 -5.355469 -0.820312 -5.828125 -1.039062 C -6.304688 -1.261719 -6.738281 -1.535156 -7.140625 -1.871094 L -7.140625 -2.699219 C -6.511719 -2.234375 -5.824219 -1.882812 -5.070312 -1.644531 C -4.316406 -1.410156 -3.542969 -1.289062 -2.75 -1.289062 C -2.238281 -1.289062 -1.726562 -1.34375 -1.21875 -1.449219 C -0.714844 -1.558594 -0.226562 -1.714844 0.246094 -1.921875 C 0.714844 -2.125 1.160156 -2.382812 1.578125 -2.691406 L 1.578125 -1.871094 C 1.1875 -1.535156 0.757812 -1.261719 0.296875 -1.039062 C -0.167969 -0.820312 -0.65625 -0.660156 -1.171875 -0.554688 C -1.683594 -0.453125 -2.207031 -0.398438 -2.738281 -0.398438 Z M -2.738281 -0.398438 "/>
</g>
<g id="glyph-2-13">
<path d="M -7.238281 -1.949219 C -7.238281 -2.441406 -7.046875 -2.816406 -6.65625 -3.070312 C -6.265625 -3.324219 -5.714844 -3.449219 -5.011719 -3.449219 C -4.304688 -3.449219 -3.75 -3.328125 -3.355469 -3.085938 C -2.957031 -2.839844 -2.761719 -2.464844 -2.761719 -1.949219 C -2.761719 -1.476562 -2.957031 -1.113281 -3.355469 -0.863281 C -3.75 -0.613281 -4.304688 -0.488281 -5.011719 -0.488281 C -5.714844 -0.488281 -6.265625 -0.605469 -6.65625 -0.839844 C -7.046875 -1.074219 -7.238281 -1.441406 -7.238281 -1.949219 M -6.621094 -1.949219 C -6.621094 -1.695312 -6.484375 -1.511719 -6.214844 -1.394531 C -5.945312 -1.277344 -5.542969 -1.21875 -5.011719 -1.21875 C -4.476562 -1.21875 -4.074219 -1.277344 -3.800781 -1.394531 C -3.527344 -1.511719 -3.390625 -1.695312 -3.390625 -1.949219 C -3.390625 -2.210938 -3.523438 -2.402344 -3.796875 -2.53125 C -4.066406 -2.65625 -4.46875 -2.71875 -5.011719 -2.71875 C -5.542969 -2.71875 -5.945312 -2.65625 -6.214844 -2.53125 C -6.484375 -2.402344 -6.621094 -2.210938 -6.621094 -1.949219 M -7.140625 -6.519531 L 0 -2.558594 L 0 -1.789062 L -7.140625 -5.75 L -7.140625 -6.519531 M -4.378906 -6.320312 C -4.378906 -6.808594 -4.183594 -7.179688 -3.796875 -7.433594 C -3.40625 -7.691406 -2.855469 -7.820312 -2.148438 -7.820312 C -1.441406 -7.820312 -0.890625 -7.699219 -0.496094 -7.453125 C -0.0976562 -7.210938 0.101562 -6.832031 0.101562 -6.320312 C 0.101562 -5.847656 -0.0976562 -5.484375 -0.496094 -5.234375 C -0.890625 -4.984375 -1.441406 -4.859375 -2.148438 -4.859375 C -2.855469 -4.859375 -3.40625 -4.976562 -3.796875 -5.210938 C -4.183594 -5.441406 -4.378906 -5.8125 -4.378906 -6.320312 M -3.75 -6.320312 C -3.75 -6.066406 -3.617188 -5.882812 -3.351562 -5.765625 C -3.082031 -5.648438 -2.683594 -5.589844 -2.148438 -5.589844 C -1.609375 -5.589844 -1.203125 -5.648438 -0.933594 -5.765625 C -0.664062 -5.882812 -0.53125 -6.066406 -0.53125 -6.320312 C -0.53125 -6.578125 -0.664062 -6.773438 -0.929688 -6.898438 C -1.195312 -7.027344 -1.601562 -7.089844 -2.148438 -7.089844 C -2.683594 -7.089844 -3.082031 -7.027344 -3.351562 -6.898438 C -3.617188 -6.773438 -3.75 -6.578125 -3.75 -6.320312 Z M -3.75 -6.320312 "/>
</g>
<g id="glyph-2-14">
<path d="M -2.738281 -2.601562 C -2.207031 -2.601562 -1.683594 -2.546875 -1.171875 -2.445312 C -0.65625 -2.339844 -0.167969 -2.183594 0.296875 -1.964844 C 0.757812 -1.75 1.1875 -1.46875 1.578125 -1.128906 L 1.578125 -0.308594 C 1.160156 -0.617188 0.714844 -0.875 0.246094 -1.078125 C -0.226562 -1.285156 -0.714844 -1.441406 -1.21875 -1.550781 C -1.726562 -1.65625 -2.238281 -1.710938 -2.75 -1.710938 C -3.277344 -1.710938 -3.796875 -1.65625 -4.308594 -1.550781 C -4.824219 -1.441406 -5.320312 -1.285156 -5.800781 -1.078125 C -6.28125 -0.875 -6.726562 -0.613281 -7.140625 -0.300781 L -7.140625 -1.128906 C -6.738281 -1.46875 -6.304688 -1.75 -5.828125 -1.964844 C -5.355469 -2.183594 -4.859375 -2.339844 -4.339844 -2.445312 C -3.820312 -2.546875 -3.285156 -2.601562 -2.738281 -2.601562 Z M -2.738281 -2.601562 "/>
</g>
</g>
<clipPath id="clip-0">
<path clip-rule="nonzero" d="M 68.953125 22.675781 L 481.324219 22.675781 L 481.324219 299.347656 L 68.953125 299.347656 Z M 68.953125 22.675781 "/>
</clipPath>
<clipPath id="clip-1">
<path clip-rule="nonzero" d="M 129 22.675781 L 130 22.675781 L 130 299.347656 L 129 299.347656 Z M 129 22.675781 "/>
</clipPath>
<clipPath id="clip-2">
<path clip-rule="nonzero" d="M 206 22.675781 L 208 22.675781 L 208 299.347656 L 206 299.347656 Z M 206 22.675781 "/>
</clipPath>
<clipPath id="clip-3">
<path clip-rule="nonzero" d="M 284 22.675781 L 286 22.675781 L 286 299.347656 L 284 299.347656 Z M 284 22.675781 "/>
</clipPath>
<clipPath id="clip-4">
<path clip-rule="nonzero" d="M 362 22.675781 L 363 22.675781 L 363 299.347656 L 362 299.347656 Z M 362 22.675781 "/>
</clipPath>
<clipPath id="clip-5">
<path clip-rule="nonzero" d="M 440 22.675781 L 441 22.675781 L 441 299.347656 L 440 299.347656 Z M 440 22.675781 "/>
</clipPath>
<clipPath id="clip-6">
<path clip-rule="nonzero" d="M 68.953125 246 L 481.324219 246 L 481.324219 248 L 68.953125 248 Z M 68.953125 246 "/>
</clipPath>
<clipPath id="clip-7">
<path clip-rule="nonzero" d="M 68.953125 192 L 481.324219 192 L 481.324219 194 L 68.953125 194 Z M 68.953125 192 "/>
</clipPath>
<clipPath id="clip-8">
<path clip-rule="nonzero" d="M 68.953125 137 L 481.324219 137 L 481.324219 139 L 68.953125 139 Z M 68.953125 137 "/>
</clipPath>
<clipPath id="clip-9">
<path clip-rule="nonzero" d="M 68.953125 82 L 481.324219 82 L 481.324219 84 L 68.953125 84 Z M 68.953125 82 "/>
</clipPath>
<clipPath id="clip-10">
<path clip-rule="nonzero" d="M 68.953125 28 L 481.324219 28 L 481.324219 30 L 68.953125 30 Z M 68.953125 28 "/>
</clipPath>
<clipPath id="clip-11">
<path clip-rule="nonzero" d="M 466 112 L 481.324219 112 L 481.324219 121 L 466 121 Z M 466 112 "/>
</clipPath>
<clipPath id="clip-12">
<path clip-rule="nonzero" d="M 68.953125 246 L 481.324219 246 L 481.324219 248 L 68.953125 248 Z M 68.953125 246 "/>
</clipPath>
<clipPath id="clip-13">
<path clip-rule="nonzero" d="M 68.953125 22.675781 L 481.324219 22.675781 L 481.324219 299.347656 L 68.953125 299.347656 Z M 68.953125 22.675781 "/>
</clipPath>
</defs>
<g clip-path="url(#clip-0)">
<path fill-rule="nonzero" fill="rgb(100%, 100%, 100%)" fill-opacity="1" d="M 68.953125 299.347656 L 481.324219 299.347656 L 481.324219 22.675781 L 68.953125 22.675781 Z M 68.953125 299.347656 "/>
</g>
<g clip-path="url(#clip-1)">
<path fill="none" stroke-width="0.533489" stroke-linecap="butt" stroke-linejoin="round" stroke="rgb(100%, 100%, 100%)" stroke-opacity="1" stroke-miterlimit="10" d="M 129.269531 299.347656 L 129.269531 22.675781 "/>
</g>
<g clip-path="url(#clip-2)">
<path fill="none" stroke-width="0.533489" stroke-linecap="butt" stroke-linejoin="round" stroke="rgb(100%, 100%, 100%)" stroke-opacity="1" stroke-miterlimit="10" d="M 207.050781 299.347656 L 207.050781 22.675781 "/>
</g>
<g clip-path="url(#clip-3)">
<path fill="none" stroke-width="0.533489" stroke-linecap="butt" stroke-linejoin="round" stroke="rgb(100%, 100%, 100%)" stroke-opacity="1" stroke-miterlimit="10" d="M 284.832031 299.347656 L 284.832031 22.675781 "/>
</g>
<g clip-path="url(#clip-4)">
<path fill="none" stroke-width="0.533489" stroke-linecap="butt" stroke-linejoin="round" stroke="rgb(100%, 100%, 100%)" stroke-opacity="1" stroke-miterlimit="10" d="M 362.71875 299.347656 L 362.71875 22.675781 "/>
</g>
<g clip-path="url(#clip-5)">
<path fill="none" stroke-width="0.533489" stroke-linecap="butt" stroke-linejoin="round" stroke="rgb(100%, 100%, 100%)" stroke-opacity="1" stroke-miterlimit="10" d="M 440.609375 299.347656 L 440.609375 22.675781 "/>
</g>
<g clip-path="url(#clip-6)">
<path fill="none" stroke-width="1.066978" stroke-linecap="butt" stroke-linejoin="round" stroke="rgb(94.117647%, 94.117647%, 94.117647%)" stroke-opacity="1" stroke-miterlimit="10" d="M 68.953125 247.460938 L 481.324219 247.460938 "/>
</g>
<g clip-path="url(#clip-7)">
<path fill="none" stroke-width="1.066978" stroke-linecap="butt" stroke-linejoin="round" stroke="rgb(94.117647%, 94.117647%, 94.117647%)" stroke-opacity="1" stroke-miterlimit="10" d="M 68.953125 192.75 L 481.324219 192.75 "/>
</g>
<g clip-path="url(#clip-8)">
<path fill="none" stroke-width="1.066978" stroke-linecap="butt" stroke-linejoin="round" stroke="rgb(94.117647%, 94.117647%, 94.117647%)" stroke-opacity="1" stroke-miterlimit="10" d="M 68.953125 138.035156 L 481.324219 138.035156 "/>
</g>
<g clip-path="url(#clip-9)">
<path fill="none" stroke-width="1.066978" stroke-linecap="butt" stroke-linejoin="round" stroke="rgb(94.117647%, 94.117647%, 94.117647%)" stroke-opacity="1" stroke-miterlimit="10" d="M 68.953125 83.324219 L 481.324219 83.324219 "/>
</g>
<g clip-path="url(#clip-10)">
<path fill="none" stroke-width="1.066978" stroke-linecap="butt" stroke-linejoin="round" stroke="rgb(94.117647%, 94.117647%, 94.117647%)" stroke-opacity="1" stroke-miterlimit="10" d="M 68.953125 28.609375 L 481.324219 28.609375 "/>
</g>
<path fill="none" stroke-width="0.708661" stroke-linecap="round" stroke-linejoin="round" stroke="rgb(11.764706%, 35.686275%, 30.980392%)" stroke-opacity="1" stroke-miterlimit="10" d="M 92.335938 162.609375 C 92.335938 165.214844 88.425781 165.214844 88.425781 162.609375 C 88.425781 160.003906 92.335938 160.003906 92.335938 162.609375 "/>
<path fill="none" stroke-width="0.708661" stroke-linecap="round" stroke-linejoin="round" stroke="rgb(11.764706%, 35.686275%, 30.980392%)" stroke-opacity="1" stroke-miterlimit="10" d="M 98.941406 175.402344 C 98.941406 178.011719 95.03125 178.011719 95.03125 175.402344 C 95.03125 172.796875 98.941406 172.796875 98.941406 175.402344 "/>
<path fill="none" stroke-width="0.708661" stroke-linecap="round" stroke-linejoin="round" stroke="rgb(11.764706%, 35.686275%, 30.980392%)" stroke-opacity="1" stroke-miterlimit="10" d="M 104.90625 210.820312 C 104.90625 213.425781 101 213.425781 101 210.820312 C 101 208.214844 104.90625 208.214844 104.90625 210.820312 "/>
<path fill="none" stroke-width="0.708661" stroke-linecap="round" stroke-linejoin="round" stroke="rgb(38.039216%, 7.058824%, 19.607843%)" stroke-opacity="1" stroke-miterlimit="10" d="M 111.515625 248.527344 C 111.515625 251.132812 107.605469 251.132812 107.605469 248.527344 C 107.605469 245.917969 111.515625 245.917969 111.515625 248.527344 "/>
<path fill="none" stroke-width="0.708661" stroke-linecap="round" stroke-linejoin="round" stroke="rgb(11.764706%, 35.686275%, 30.980392%)" stroke-opacity="1" stroke-miterlimit="10" d="M 117.90625 242.585938 C 117.90625 245.191406 113.996094 245.191406 113.996094 242.585938 C 113.996094 239.980469 117.90625 239.980469 117.90625 242.585938 "/>
<path fill="none" stroke-width="0.708661" stroke-linecap="round" stroke-linejoin="round" stroke="rgb(11.764706%, 35.686275%, 30.980392%)" stroke-opacity="1" stroke-miterlimit="10" d="M 124.511719 243.046875 C 124.511719 245.652344 120.605469 245.652344 120.605469 243.046875 C 120.605469 240.4375 124.511719 240.4375 124.511719 243.046875 "/>
<path fill="none" stroke-width="0.708661" stroke-linecap="round" stroke-linejoin="round" stroke="rgb(11.764706%, 35.686275%, 30.980392%)" stroke-opacity="1" stroke-miterlimit="10" d="M 130.90625 228.78125 C 130.90625 231.390625 126.996094 231.390625 126.996094 228.78125 C 126.996094 226.175781 130.90625 226.175781 130.90625 228.78125 "/>
<path fill="none" stroke-width="0.708661" stroke-linecap="round" stroke-linejoin="round" stroke="rgb(11.764706%, 35.686275%, 30.980392%)" stroke-opacity="1" stroke-miterlimit="10" d="M 137.511719 222.347656 C 137.511719 224.953125 133.601562 224.953125 133.601562 222.347656 C 133.601562 219.742188 137.511719 219.742188 137.511719 222.347656 "/>
<path fill="none" stroke-width="0.708661" stroke-linecap="round" stroke-linejoin="round" stroke="rgb(11.764706%, 35.686275%, 30.980392%)" stroke-opacity="1" stroke-miterlimit="10" d="M 144.117188 228.898438 C 144.117188 231.507812 140.207031 231.507812 140.207031 228.898438 C 140.207031 226.292969 144.117188 226.292969 144.117188 228.898438 "/>
<path fill="none" stroke-width="0.708661" stroke-linecap="round" stroke-linejoin="round" stroke="rgb(11.764706%, 35.686275%, 30.980392%)" stroke-opacity="1" stroke-miterlimit="10" d="M 150.511719 224.414062 C 150.511719 227.019531 146.601562 227.019531 146.601562 224.414062 C 146.601562 221.808594 150.511719 221.808594 150.511719 224.414062 "/>
<path fill="none" stroke-width="0.708661" stroke-linecap="round" stroke-linejoin="round" stroke="rgb(38.039216%, 7.058824%, 19.607843%)" stroke-opacity="1" stroke-miterlimit="10" d="M 157.117188 286.773438 C 157.117188 289.378906 153.207031 289.378906 153.207031 286.773438 C 153.207031 284.167969 157.117188 284.167969 157.117188 286.773438 "/>
<path fill="none" stroke-width="0.708661" stroke-linecap="round" stroke-linejoin="round" stroke="rgb(11.764706%, 35.686275%, 30.980392%)" stroke-opacity="1" stroke-miterlimit="10" d="M 163.511719 241.5 C 163.511719 244.109375 159.601562 244.109375 159.601562 241.5 C 159.601562 238.894531 163.511719 238.894531 163.511719 241.5 "/>
<path fill="none" stroke-width="0.708661" stroke-linecap="round" stroke-linejoin="round" stroke="rgb(11.764706%, 35.686275%, 30.980392%)" stroke-opacity="1" stroke-miterlimit="10" d="M 170.117188 183.113281 C 170.117188 185.722656 166.207031 185.722656 166.207031 183.113281 C 166.207031 180.507812 170.117188 180.507812 170.117188 183.113281 "/>
<path fill="none" stroke-width="0.708661" stroke-linecap="round" stroke-linejoin="round" stroke="rgb(11.764706%, 35.686275%, 30.980392%)" stroke-opacity="1" stroke-miterlimit="10" d="M 176.722656 213.800781 C 176.722656 216.40625 172.8125 216.40625 172.8125 213.800781 C 172.8125 211.195312 176.722656 211.195312 176.722656 213.800781 "/>
<path fill="none" stroke-width="0.708661" stroke-linecap="round" stroke-linejoin="round" stroke="rgb(11.764706%, 35.686275%, 30.980392%)" stroke-opacity="1" stroke-miterlimit="10" d="M 182.6875 210.976562 C 182.6875 213.582031 178.78125 213.582031 178.78125 210.976562 C 178.78125 208.371094 182.6875 208.371094 182.6875 210.976562 "/>
<path fill="none" stroke-width="0.708661" stroke-linecap="round" stroke-linejoin="round" stroke="rgb(11.764706%, 35.686275%, 30.980392%)" stroke-opacity="1" stroke-miterlimit="10" d="M 189.296875 240.566406 C 189.296875 243.171875 185.386719 243.171875 185.386719 240.566406 C 185.386719 237.957031 189.296875 237.957031 189.296875 240.566406 "/>
<path fill="none" stroke-width="0.708661" stroke-linecap="round" stroke-linejoin="round" stroke="rgb(11.764706%, 35.686275%, 30.980392%)" stroke-opacity="1" stroke-miterlimit="10" d="M 195.6875 216.601562 C 195.6875 219.207031 191.777344 219.207031 191.777344 216.601562 C 191.777344 213.996094 195.6875 213.996094 195.6875 216.601562 "/>
<path fill="none" stroke-width="0.708661" stroke-linecap="round" stroke-linejoin="round" stroke="rgb(11.764706%, 35.686275%, 30.980392%)" stroke-opacity="1" stroke-miterlimit="10" d="M 202.292969 227.722656 C 202.292969 230.328125 198.382812 230.328125 198.382812 227.722656 C 198.382812 225.113281 202.292969 225.113281 202.292969 227.722656 "/>
<path fill="none" stroke-width="0.708661" stroke-linecap="round" stroke-linejoin="round" stroke="rgb(11.764706%, 35.686275%, 30.980392%)" stroke-opacity="1" stroke-miterlimit="10" d="M 208.6875 235.90625 C 208.6875 238.511719 204.777344 238.511719 204.777344 235.90625 C 204.777344 233.300781 208.6875 233.300781 208.6875 235.90625 "/>
<path fill="none" stroke-width="0.708661" stroke-linecap="round" stroke-linejoin="round" stroke="rgb(38.039216%, 7.058824%, 19.607843%)" stroke-opacity="1" stroke-miterlimit="10" d="M 215.292969 251.042969 C 215.292969 253.648438 211.382812 253.648438 211.382812 251.042969 C 211.382812 248.433594 215.292969 248.433594 215.292969 251.042969 "/>
<path fill="none" stroke-width="0.708661" stroke-linecap="round" stroke-linejoin="round" stroke="rgb(11.764706%, 35.686275%, 30.980392%)" stroke-opacity="1" stroke-miterlimit="10" d="M 221.898438 225.804688 C 221.898438 228.410156 217.988281 228.410156 217.988281 225.804688 C 217.988281 223.199219 221.898438 223.199219 221.898438 225.804688 "/>
<path fill="none" stroke-width="0.708661" stroke-linecap="round" stroke-linejoin="round" stroke="rgb(11.764706%, 35.686275%, 30.980392%)" stroke-opacity="1" stroke-miterlimit="10" d="M 228.292969 225.167969 C 228.292969 227.777344 224.382812 227.777344 224.382812 225.167969 C 224.382812 222.5625 228.292969 222.5625 228.292969 225.167969 "/>
<path fill="none" stroke-width="0.708661" stroke-linecap="round" stroke-linejoin="round" stroke="rgb(11.764706%, 35.686275%, 30.980392%)" stroke-opacity="1" stroke-miterlimit="10" d="M 234.898438 197.464844 C 234.898438 200.074219 230.988281 200.074219 230.988281 197.464844 C 230.988281 194.859375 234.898438 194.859375 234.898438 197.464844 "/>
<path fill="none" stroke-width="0.708661" stroke-linecap="round" stroke-linejoin="round" stroke="rgb(11.764706%, 35.686275%, 30.980392%)" stroke-opacity="1" stroke-miterlimit="10" d="M 241.292969 201.949219 C 241.292969 204.554688 237.382812 204.554688 237.382812 201.949219 C 237.382812 199.34375 241.292969 199.34375 241.292969 201.949219 "/>
<path fill="none" stroke-width="0.708661" stroke-linecap="round" stroke-linejoin="round" stroke="rgb(11.764706%, 35.686275%, 30.980392%)" stroke-opacity="1" stroke-miterlimit="10" d="M 247.898438 201.957031 C 247.898438 204.5625 243.988281 204.5625 243.988281 201.957031 C 243.988281 199.351562 247.898438 199.351562 247.898438 201.957031 "/>
<path fill="none" stroke-width="0.708661" stroke-linecap="round" stroke-linejoin="round" stroke="rgb(11.764706%, 35.686275%, 30.980392%)" stroke-opacity="1" stroke-miterlimit="10" d="M 254.503906 184.867188 C 254.503906 187.472656 250.59375 187.472656 250.59375 184.867188 C 250.59375 182.261719 254.503906 182.261719 254.503906 184.867188 "/>
<path fill="none" stroke-width="0.708661" stroke-linecap="round" stroke-linejoin="round" stroke="rgb(11.764706%, 35.686275%, 30.980392%)" stroke-opacity="1" stroke-miterlimit="10" d="M 260.46875 162.425781 C 260.46875 165.03125 256.5625 165.03125 256.5625 162.425781 C 256.5625 159.816406 260.46875 159.816406 260.46875 162.425781 "/>
<path fill="none" stroke-width="0.708661" stroke-linecap="round" stroke-linejoin="round" stroke="rgb(11.764706%, 35.686275%, 30.980392%)" stroke-opacity="1" stroke-miterlimit="10" d="M 267.078125 181.191406 C 267.078125 183.796875 263.167969 183.796875 263.167969 181.191406 C 263.167969 178.582031 267.078125 178.582031 267.078125 181.191406 "/>
<path fill="none" stroke-width="0.708661" stroke-linecap="round" stroke-linejoin="round" stroke="rgb(11.764706%, 35.686275%, 30.980392%)" stroke-opacity="1" stroke-miterlimit="10" d="M 273.46875 170.5 C 273.46875 173.105469 269.558594 173.105469 269.558594 170.5 C 269.558594 167.894531 273.46875 167.894531 273.46875 170.5 "/>
<path fill="none" stroke-width="0.708661" stroke-linecap="round" stroke-linejoin="round" stroke="rgb(11.764706%, 35.686275%, 30.980392%)" stroke-opacity="1" stroke-miterlimit="10" d="M 280.074219 144.488281 C 280.074219 147.097656 276.164062 147.097656 276.164062 144.488281 C 276.164062 141.882812 280.074219 141.882812 280.074219 144.488281 "/>
<path fill="none" stroke-width="0.708661" stroke-linecap="round" stroke-linejoin="round" stroke="rgb(11.764706%, 35.686275%, 30.980392%)" stroke-opacity="1" stroke-miterlimit="10" d="M 286.46875 161.59375 C 286.46875 164.199219 282.558594 164.199219 282.558594 161.59375 C 282.558594 158.984375 286.46875 158.984375 286.46875 161.59375 "/>
<path fill="none" stroke-width="0.708661" stroke-linecap="round" stroke-linejoin="round" stroke="rgb(11.764706%, 35.686275%, 30.980392%)" stroke-opacity="1" stroke-miterlimit="10" d="M 293.074219 133.910156 C 293.074219 136.515625 289.164062 136.515625 289.164062 133.910156 C 289.164062 131.304688 293.074219 131.304688 293.074219 133.910156 "/>
<path fill="none" stroke-width="0.708661" stroke-linecap="round" stroke-linejoin="round" stroke="rgb(11.764706%, 35.686275%, 30.980392%)" stroke-opacity="1" stroke-miterlimit="10" d="M 299.679688 104.328125 C 299.679688 106.933594 295.769531 106.933594 295.769531 104.328125 C 295.769531 101.722656 299.679688 101.722656 299.679688 104.328125 "/>
<path fill="none" stroke-width="0.708661" stroke-linecap="round" stroke-linejoin="round" stroke="rgb(11.764706%, 35.686275%, 30.980392%)" stroke-opacity="1" stroke-miterlimit="10" d="M 306.074219 131.042969 C 306.074219 133.648438 302.164062 133.648438 302.164062 131.042969 C 302.164062 128.4375 306.074219 128.4375 306.074219 131.042969 "/>
<path fill="none" stroke-width="0.708661" stroke-linecap="round" stroke-linejoin="round" stroke="rgb(11.764706%, 35.686275%, 30.980392%)" stroke-opacity="1" stroke-miterlimit="10" d="M 312.679688 118.3125 C 312.679688 120.917969 308.769531 120.917969 308.769531 118.3125 C 308.769531 115.703125 312.679688 115.703125 312.679688 118.3125 "/>
<path fill="none" stroke-width="0.708661" stroke-linecap="round" stroke-linejoin="round" stroke="rgb(11.764706%, 35.686275%, 30.980392%)" stroke-opacity="1" stroke-miterlimit="10" d="M 319.074219 35.253906 C 319.074219 37.859375 315.164062 37.859375 315.164062 35.253906 C 315.164062 32.648438 319.074219 32.648438 319.074219 35.253906 "/>
<path fill="none" stroke-width="0.708661" stroke-linecap="round" stroke-linejoin="round" stroke="rgb(11.764706%, 35.686275%, 30.980392%)" stroke-opacity="1" stroke-miterlimit="10" d="M 325.679688 131.269531 C 325.679688 133.878906 321.769531 133.878906 321.769531 131.269531 C 321.769531 128.664062 325.679688 128.664062 325.679688 131.269531 "/>
<path fill="none" stroke-width="0.708661" stroke-linecap="round" stroke-linejoin="round" stroke="rgb(11.764706%, 35.686275%, 30.980392%)" stroke-opacity="1" stroke-miterlimit="10" d="M 332.285156 93.257812 C 332.285156 95.863281 328.375 95.863281 328.375 93.257812 C 328.375 90.652344 332.285156 90.652344 332.285156 93.257812 "/>
<path fill="none" stroke-width="0.708661" stroke-linecap="round" stroke-linejoin="round" stroke="rgb(11.764706%, 35.686275%, 30.980392%)" stroke-opacity="1" stroke-miterlimit="10" d="M 338.464844 129.429688 C 338.464844 132.035156 334.554688 132.035156 334.554688 129.429688 C 334.554688 126.824219 338.464844 126.824219 338.464844 129.429688 "/>
<path fill="none" stroke-width="0.708661" stroke-linecap="round" stroke-linejoin="round" stroke="rgb(11.764706%, 35.686275%, 30.980392%)" stroke-opacity="1" stroke-miterlimit="10" d="M 345.070312 151.027344 C 345.070312 153.632812 341.160156 153.632812 341.160156 151.027344 C 341.160156 148.417969 345.070312 148.417969 345.070312 151.027344 "/>
<path fill="none" stroke-width="0.708661" stroke-linecap="round" stroke-linejoin="round" stroke="rgb(11.764706%, 35.686275%, 30.980392%)" stroke-opacity="1" stroke-miterlimit="10" d="M 351.464844 108.984375 C 351.464844 111.589844 347.554688 111.589844 347.554688 108.984375 C 347.554688 106.378906 351.464844 106.378906 351.464844 108.984375 "/>
<path fill="none" stroke-width="0.708661" stroke-linecap="round" stroke-linejoin="round" stroke="rgb(11.764706%, 35.686275%, 30.980392%)" stroke-opacity="1" stroke-miterlimit="10" d="M 358.070312 166.300781 C 358.070312 168.910156 354.160156 168.910156 354.160156 166.300781 C 354.160156 163.695312 358.070312 163.695312 358.070312 166.300781 "/>
<path fill="none" stroke-width="0.708661" stroke-linecap="round" stroke-linejoin="round" stroke="rgb(11.764706%, 35.686275%, 30.980392%)" stroke-opacity="1" stroke-miterlimit="10" d="M 364.460938 168.605469 C 364.460938 171.210938 360.554688 171.210938 360.554688 168.605469 C 360.554688 166 364.460938 166 364.460938 168.605469 "/>
<path fill="none" stroke-width="0.708661" stroke-linecap="round" stroke-linejoin="round" stroke="rgb(11.764706%, 35.686275%, 30.980392%)" stroke-opacity="1" stroke-miterlimit="10" d="M 371.070312 155.601562 C 371.070312 158.210938 367.160156 158.210938 367.160156 155.601562 C 367.160156 152.996094 371.070312 152.996094 371.070312 155.601562 "/>
<path fill="none" stroke-width="0.708661" stroke-linecap="round" stroke-linejoin="round" stroke="rgb(11.764706%, 35.686275%, 30.980392%)" stroke-opacity="1" stroke-miterlimit="10" d="M 377.675781 109.148438 C 377.675781 111.753906 373.765625 111.753906 373.765625 109.148438 C 373.765625 106.542969 377.675781 106.542969 377.675781 109.148438 "/>
<path fill="none" stroke-width="0.708661" stroke-linecap="round" stroke-linejoin="round" stroke="rgb(11.764706%, 35.686275%, 30.980392%)" stroke-opacity="1" stroke-miterlimit="10" d="M 384.066406 121.609375 C 384.066406 124.21875 380.15625 124.21875 380.15625 121.609375 C 380.15625 119.003906 384.066406 119.003906 384.066406 121.609375 "/>
<path fill="none" stroke-width="0.708661" stroke-linecap="round" stroke-linejoin="round" stroke="rgb(11.764706%, 35.686275%, 30.980392%)" stroke-opacity="1" stroke-miterlimit="10" d="M 390.671875 94.097656 C 390.671875 96.703125 386.765625 96.703125 386.765625 94.097656 C 386.765625 91.492188 390.671875 91.492188 390.671875 94.097656 "/>
<path fill="none" stroke-width="0.708661" stroke-linecap="round" stroke-linejoin="round" stroke="rgb(11.764706%, 35.686275%, 30.980392%)" stroke-opacity="1" stroke-miterlimit="10" d="M 397.066406 98.4375 C 397.066406 101.042969 393.15625 101.042969 393.15625 98.4375 C 393.15625 95.828125 397.066406 95.828125 397.066406 98.4375 "/>
<path fill="none" stroke-width="0.708661" stroke-linecap="round" stroke-linejoin="round" stroke="rgb(11.764706%, 35.686275%, 30.980392%)" stroke-opacity="1" stroke-miterlimit="10" d="M 403.671875 106 C 403.671875 108.605469 399.761719 108.605469 399.761719 106 C 399.761719 103.390625 403.671875 103.390625 403.671875 106 "/>
<path fill="none" stroke-width="0.708661" stroke-linecap="round" stroke-linejoin="round" stroke="rgb(11.764706%, 35.686275%, 30.980392%)" stroke-opacity="1" stroke-miterlimit="10" d="M 410.277344 156.289062 C 410.277344 158.898438 406.367188 158.898438 406.367188 156.289062 C 406.367188 153.683594 410.277344 153.683594 410.277344 156.289062 "/>
<path fill="none" stroke-width="0.708661" stroke-linecap="round" stroke-linejoin="round" stroke="rgb(11.764706%, 35.686275%, 30.980392%)" stroke-opacity="1" stroke-miterlimit="10" d="M 416.246094 132.863281 C 416.246094 135.46875 412.335938 135.46875 412.335938 132.863281 C 412.335938 130.257812 416.246094 130.257812 416.246094 132.863281 "/>
<path fill="none" stroke-width="0.708661" stroke-linecap="round" stroke-linejoin="round" stroke="rgb(11.764706%, 35.686275%, 30.980392%)" stroke-opacity="1" stroke-miterlimit="10" d="M 422.851562 148.566406 C 422.851562 151.171875 418.941406 151.171875 418.941406 148.566406 C 418.941406 145.960938 422.851562 145.960938 422.851562 148.566406 "/>
<path fill="none" stroke-width="0.708661" stroke-linecap="round" stroke-linejoin="round" stroke="rgb(11.764706%, 35.686275%, 30.980392%)" stroke-opacity="1" stroke-miterlimit="10" d="M 429.246094 166.816406 C 429.246094 169.421875 425.335938 169.421875 425.335938 166.816406 C 425.335938 164.207031 429.246094 164.207031 429.246094 166.816406 "/>
<path fill="none" stroke-width="0.708661" stroke-linecap="round" stroke-linejoin="round" stroke="rgb(11.764706%, 35.686275%, 30.980392%)" stroke-opacity="1" stroke-miterlimit="10" d="M 435.851562 125.804688 C 435.851562 128.410156 431.941406 128.410156 431.941406 125.804688 C 431.941406 123.199219 435.851562 123.199219 435.851562 125.804688 "/>
<path fill="none" stroke-width="0.708661" stroke-linecap="round" stroke-linejoin="round" stroke="rgb(11.764706%, 35.686275%, 30.980392%)" stroke-opacity="1" stroke-miterlimit="10" d="M 442.242188 126.226562 C 442.242188 128.832031 438.332031 128.832031 438.332031 126.226562 C 438.332031 123.617188 442.242188 123.617188 442.242188 126.226562 "/>
<path fill="none" stroke-width="0.708661" stroke-linecap="round" stroke-linejoin="round" stroke="rgb(11.764706%, 35.686275%, 30.980392%)" stroke-opacity="1" stroke-miterlimit="10" d="M 448.847656 156.875 C 448.847656 159.480469 444.941406 159.480469 444.941406 156.875 C 444.941406 154.269531 448.847656 154.269531 448.847656 156.875 "/>
<path fill="none" stroke-width="0.708661" stroke-linecap="round" stroke-linejoin="round" stroke="rgb(11.764706%, 35.686275%, 30.980392%)" stroke-opacity="1" stroke-miterlimit="10" d="M 455.457031 139.773438 C 455.457031 142.378906 451.546875 142.378906 451.546875 139.773438 C 451.546875 137.167969 455.457031 137.167969 455.457031 139.773438 "/>
<path fill="none" stroke-width="0.708661" stroke-linecap="round" stroke-linejoin="round" stroke="rgb(11.764706%, 35.686275%, 30.980392%)" stroke-opacity="1" stroke-miterlimit="10" d="M 461.847656 122.054688 C 461.847656 124.664062 457.9375 124.664062 457.9375 122.054688 C 457.9375 119.449219 461.847656 119.449219 461.847656 122.054688 "/>
<path fill="none" stroke-width="1.066978" stroke-linecap="butt" stroke-linejoin="round" stroke="rgb(38.039216%, 7.058824%, 19.607843%)" stroke-opacity="1" stroke-miterlimit="10" d="M 90.378906 162.609375 L 96.988281 175.402344 L 102.953125 210.820312 L 109.558594 248.527344 L 115.953125 242.585938 L 122.558594 243.046875 L 128.953125 228.78125 L 135.558594 222.347656 L 142.164062 228.898438 L 148.554688 224.414062 L 155.164062 286.773438 L 161.554688 241.5 L 168.160156 183.113281 L 174.769531 213.800781 L 180.734375 210.976562 L 187.339844 240.566406 L 193.734375 216.601562 L 200.339844 227.722656 L 206.730469 235.90625 L 213.339844 251.042969 L 219.945312 225.804688 L 226.335938 225.167969 L 232.945312 197.464844 L 239.335938 201.949219 L 245.941406 201.957031 L 252.546875 184.867188 L 258.515625 162.425781 L 265.121094 181.191406 L 271.515625 170.5 L 278.121094 144.488281 L 284.511719 161.59375 L 291.121094 133.910156 L 297.726562 104.328125 L 304.117188 131.042969 L 310.722656 118.3125 L 317.117188 35.253906 L 323.722656 131.269531 L 330.328125 93.257812 L 336.507812 129.429688 L 343.117188 151.027344 L 349.507812 108.984375 L 356.113281 166.300781 L 362.507812 168.605469 L 369.113281 155.601562 L 375.71875 109.148438 L 382.113281 121.609375 L 388.71875 94.097656 L 395.113281 98.4375 L 401.71875 106 L 408.324219 156.289062 L 414.289062 132.863281 L 420.898438 148.566406 L 427.289062 166.816406 L 433.894531 125.804688 L 440.289062 126.226562 L 446.894531 156.875 L 453.5 139.773438 L 459.894531 122.054688 "/>
<path fill-rule="nonzero" fill="rgb(11.764706%, 35.686275%, 30.980392%)" fill-opacity="0.501961" d="M 87.695312 247.460938 L 93.066406 247.460938 L 93.066406 162.609375 L 87.695312 162.609375 Z M 87.695312 247.460938 "/>
<path fill-rule="nonzero" fill="rgb(11.764706%, 35.686275%, 30.980392%)" fill-opacity="0.501961" d="M 94.300781 247.460938 L 99.671875 247.460938 L 99.671875 175.402344 L 94.300781 175.402344 Z M 94.300781 247.460938 "/>
<path fill-rule="nonzero" fill="rgb(11.764706%, 35.686275%, 30.980392%)" fill-opacity="0.501961" d="M 100.269531 247.460938 L 105.640625 247.460938 L 105.640625 210.820312 L 100.269531 210.820312 Z M 100.269531 247.460938 "/>
<path fill-rule="nonzero" fill="rgb(38.039216%, 7.058824%, 19.607843%)" fill-opacity="0.501961" d="M 106.875 248.527344 L 112.246094 248.527344 L 112.246094 247.464844 L 106.875 247.464844 Z M 106.875 248.527344 "/>
<path fill-rule="nonzero" fill="rgb(11.764706%, 35.686275%, 30.980392%)" fill-opacity="0.501961" d="M 113.265625 247.460938 L 118.636719 247.460938 L 118.636719 242.585938 L 113.265625 242.585938 Z M 113.265625 247.460938 "/>
<path fill-rule="nonzero" fill="rgb(11.764706%, 35.686275%, 30.980392%)" fill-opacity="0.501961" d="M 119.875 247.460938 L 125.246094 247.460938 L 125.246094 243.042969 L 119.875 243.042969 Z M 119.875 247.460938 "/>
<path fill-rule="nonzero" fill="rgb(11.764706%, 35.686275%, 30.980392%)" fill-opacity="0.501961" d="M 126.265625 247.460938 L 131.636719 247.460938 L 131.636719 228.78125 L 126.265625 228.78125 Z M 126.265625 247.460938 "/>
<path fill-rule="nonzero" fill="rgb(11.764706%, 35.686275%, 30.980392%)" fill-opacity="0.501961" d="M 132.871094 247.460938 L 138.242188 247.460938 L 138.242188 222.34375 L 132.871094 222.34375 Z M 132.871094 247.460938 "/>
<path fill-rule="nonzero" fill="rgb(11.764706%, 35.686275%, 30.980392%)" fill-opacity="0.501961" d="M 139.476562 247.460938 L 144.847656 247.460938 L 144.847656 228.898438 L 139.476562 228.898438 Z M 139.476562 247.460938 "/>
<path fill-rule="nonzero" fill="rgb(11.764706%, 35.686275%, 30.980392%)" fill-opacity="0.501961" d="M 145.871094 247.460938 L 151.242188 247.460938 L 151.242188 224.414062 L 145.871094 224.414062 Z M 145.871094 247.460938 "/>
<path fill-rule="nonzero" fill="rgb(38.039216%, 7.058824%, 19.607843%)" fill-opacity="0.501961" d="M 152.476562 286.773438 L 157.847656 286.773438 L 157.847656 247.464844 L 152.476562 247.464844 Z M 152.476562 286.773438 "/>
<path fill-rule="nonzero" fill="rgb(11.764706%, 35.686275%, 30.980392%)" fill-opacity="0.501961" d="M 158.871094 247.460938 L 164.242188 247.460938 L 164.242188 241.5 L 158.871094 241.5 Z M 158.871094 247.460938 "/>
<path fill-rule="nonzero" fill="rgb(11.764706%, 35.686275%, 30.980392%)" fill-opacity="0.501961" d="M 165.476562 247.460938 L 170.847656 247.460938 L 170.847656 183.113281 L 165.476562 183.113281 Z M 165.476562 247.460938 "/>
<path fill-rule="nonzero" fill="rgb(11.764706%, 35.686275%, 30.980392%)" fill-opacity="0.501961" d="M 172.082031 247.460938 L 177.453125 247.460938 L 177.453125 213.800781 L 172.082031 213.800781 Z M 172.082031 247.460938 "/>
<path fill-rule="nonzero" fill="rgb(11.764706%, 35.686275%, 30.980392%)" fill-opacity="0.501961" d="M 178.050781 247.460938 L 183.421875 247.460938 L 183.421875 210.976562 L 178.050781 210.976562 Z M 178.050781 247.460938 "/>
<path fill-rule="nonzero" fill="rgb(11.764706%, 35.686275%, 30.980392%)" fill-opacity="0.501961" d="M 184.65625 247.460938 L 190.027344 247.460938 L 190.027344 240.5625 L 184.65625 240.5625 Z M 184.65625 247.460938 "/>
<path fill-rule="nonzero" fill="rgb(11.764706%, 35.686275%, 30.980392%)" fill-opacity="0.501961" d="M 191.046875 247.460938 L 196.417969 247.460938 L 196.417969 216.601562 L 191.046875 216.601562 Z M 191.046875 247.460938 "/>
<path fill-rule="nonzero" fill="rgb(11.764706%, 35.686275%, 30.980392%)" fill-opacity="0.501961" d="M 197.65625 247.460938 L 203.027344 247.460938 L 203.027344 227.71875 L 197.65625 227.71875 Z M 197.65625 247.460938 "/>
<path fill-rule="nonzero" fill="rgb(11.764706%, 35.686275%, 30.980392%)" fill-opacity="0.501961" d="M 204.046875 247.460938 L 209.417969 247.460938 L 209.417969 235.902344 L 204.046875 235.902344 Z M 204.046875 247.460938 "/>
<path fill-rule="nonzero" fill="rgb(38.039216%, 7.058824%, 19.607843%)" fill-opacity="0.501961" d="M 210.652344 251.042969 L 216.023438 251.042969 L 216.023438 247.464844 L 210.652344 247.464844 Z M 210.652344 251.042969 "/>
<path fill-rule="nonzero" fill="rgb(11.764706%, 35.686275%, 30.980392%)" fill-opacity="0.501961" d="M 217.257812 247.460938 L 222.628906 247.460938 L 222.628906 225.804688 L 217.257812 225.804688 Z M 217.257812 247.460938 "/>
<path fill-rule="nonzero" fill="rgb(11.764706%, 35.686275%, 30.980392%)" fill-opacity="0.501961" d="M 223.652344 247.460938 L 229.023438 247.460938 L 229.023438 225.167969 L 223.652344 225.167969 Z M 223.652344 247.460938 "/>
<path fill-rule="nonzero" fill="rgb(11.764706%, 35.686275%, 30.980392%)" fill-opacity="0.501961" d="M 230.257812 247.460938 L 235.628906 247.460938 L 235.628906 197.464844 L 230.257812 197.464844 Z M 230.257812 247.460938 "/>
<path fill-rule="nonzero" fill="rgb(11.764706%, 35.686275%, 30.980392%)" fill-opacity="0.501961" d="M 236.652344 247.460938 L 242.023438 247.460938 L 242.023438 201.949219 L 236.652344 201.949219 Z M 236.652344 247.460938 "/>
<path fill-rule="nonzero" fill="rgb(11.764706%, 35.686275%, 30.980392%)" fill-opacity="0.501961" d="M 243.257812 247.460938 L 248.628906 247.460938 L 248.628906 201.957031 L 243.257812 201.957031 Z M 243.257812 247.460938 "/>
<path fill-rule="nonzero" fill="rgb(11.764706%, 35.686275%, 30.980392%)" fill-opacity="0.501961" d="M 249.863281 247.460938 L 255.234375 247.460938 L 255.234375 184.867188 L 249.863281 184.867188 Z M 249.863281 247.460938 "/>
<path fill-rule="nonzero" fill="rgb(11.764706%, 35.686275%, 30.980392%)" fill-opacity="0.501961" d="M 255.832031 247.460938 L 261.203125 247.460938 L 261.203125 162.421875 L 255.832031 162.421875 Z M 255.832031 247.460938 "/>
<path fill-rule="nonzero" fill="rgb(11.764706%, 35.686275%, 30.980392%)" fill-opacity="0.501961" d="M 262.4375 247.460938 L 267.808594 247.460938 L 267.808594 181.1875 L 262.4375 181.1875 Z M 262.4375 247.460938 "/>
<path fill-rule="nonzero" fill="rgb(11.764706%, 35.686275%, 30.980392%)" fill-opacity="0.501961" d="M 268.828125 247.460938 L 274.199219 247.460938 L 274.199219 170.496094 L 268.828125 170.496094 Z M 268.828125 247.460938 "/>
<path fill-rule="nonzero" fill="rgb(11.764706%, 35.686275%, 30.980392%)" fill-opacity="0.501961" d="M 275.433594 247.460938 L 280.804688 247.460938 L 280.804688 144.488281 L 275.433594 144.488281 Z M 275.433594 247.460938 "/>
<path fill-rule="nonzero" fill="rgb(11.764706%, 35.686275%, 30.980392%)" fill-opacity="0.501961" d="M 281.828125 247.460938 L 287.199219 247.460938 L 287.199219 161.589844 L 281.828125 161.589844 Z M 281.828125 247.460938 "/>
<path fill-rule="nonzero" fill="rgb(11.764706%, 35.686275%, 30.980392%)" fill-opacity="0.501961" d="M 288.433594 247.460938 L 293.804688 247.460938 L 293.804688 133.910156 L 288.433594 133.910156 Z M 288.433594 247.460938 "/>
<path fill-rule="nonzero" fill="rgb(11.764706%, 35.686275%, 30.980392%)" fill-opacity="0.501961" d="M 295.039062 247.460938 L 300.410156 247.460938 L 300.410156 104.328125 L 295.039062 104.328125 Z M 295.039062 247.460938 "/>
<path fill-rule="nonzero" fill="rgb(11.764706%, 35.686275%, 30.980392%)" fill-opacity="0.501961" d="M 301.433594 247.460938 L 306.804688 247.460938 L 306.804688 131.042969 L 301.433594 131.042969 Z M 301.433594 247.460938 "/>
<path fill-rule="nonzero" fill="rgb(11.764706%, 35.686275%, 30.980392%)" fill-opacity="0.501961" d="M 308.039062 247.460938 L 313.410156 247.460938 L 313.410156 118.308594 L 308.039062 118.308594 Z M 308.039062 247.460938 "/>
<path fill-rule="nonzero" fill="rgb(11.764706%, 35.686275%, 30.980392%)" fill-opacity="0.501961" d="M 314.433594 247.460938 L 319.804688 247.460938 L 319.804688 35.25 L 314.433594 35.25 Z M 314.433594 247.460938 "/>
<path fill-rule="nonzero" fill="rgb(11.764706%, 35.686275%, 30.980392%)" fill-opacity="0.501961" d="M 321.039062 247.460938 L 326.410156 247.460938 L 326.410156 131.269531 L 321.039062 131.269531 Z M 321.039062 247.460938 "/>
<path fill-rule="nonzero" fill="rgb(11.764706%, 35.686275%, 30.980392%)" fill-opacity="0.501961" d="M 327.644531 247.460938 L 333.015625 247.460938 L 333.015625 93.257812 L 327.644531 93.257812 Z M 327.644531 247.460938 "/>
<path fill-rule="nonzero" fill="rgb(11.764706%, 35.686275%, 30.980392%)" fill-opacity="0.501961" d="M 333.824219 247.460938 L 339.195312 247.460938 L 339.195312 129.429688 L 333.824219 129.429688 Z M 333.824219 247.460938 "/>
<path fill-rule="nonzero" fill="rgb(11.764706%, 35.686275%, 30.980392%)" fill-opacity="0.501961" d="M 340.429688 247.460938 L 345.800781 247.460938 L 345.800781 151.023438 L 340.429688 151.023438 Z M 340.429688 247.460938 "/>
<path fill-rule="nonzero" fill="rgb(11.764706%, 35.686275%, 30.980392%)" fill-opacity="0.501961" d="M 346.824219 247.460938 L 352.195312 247.460938 L 352.195312 108.984375 L 346.824219 108.984375 Z M 346.824219 247.460938 "/>
<path fill-rule="nonzero" fill="rgb(11.764706%, 35.686275%, 30.980392%)" fill-opacity="0.501961" d="M 353.429688 247.460938 L 358.800781 247.460938 L 358.800781 166.300781 L 353.429688 166.300781 Z M 353.429688 247.460938 "/>
<path fill-rule="nonzero" fill="rgb(11.764706%, 35.686275%, 30.980392%)" fill-opacity="0.501961" d="M 359.824219 247.460938 L 365.195312 247.460938 L 365.195312 168.605469 L 359.824219 168.605469 Z M 359.824219 247.460938 "/>
<path fill-rule="nonzero" fill="rgb(11.764706%, 35.686275%, 30.980392%)" fill-opacity="0.501961" d="M 366.429688 247.460938 L 371.800781 247.460938 L 371.800781 155.601562 L 366.429688 155.601562 Z M 366.429688 247.460938 "/>
<path fill-rule="nonzero" fill="rgb(11.764706%, 35.686275%, 30.980392%)" fill-opacity="0.501961" d="M 373.035156 247.460938 L 378.40625 247.460938 L 378.40625 109.148438 L 373.035156 109.148438 Z M 373.035156 247.460938 "/>
<path fill-rule="nonzero" fill="rgb(11.764706%, 35.686275%, 30.980392%)" fill-opacity="0.501961" d="M 379.425781 247.460938 L 384.796875 247.460938 L 384.796875 121.609375 L 379.425781 121.609375 Z M 379.425781 247.460938 "/>
<path fill-rule="nonzero" fill="rgb(11.764706%, 35.686275%, 30.980392%)" fill-opacity="0.501961" d="M 386.035156 247.460938 L 391.40625 247.460938 L 391.40625 94.097656 L 386.035156 94.097656 Z M 386.035156 247.460938 "/>
<path fill-rule="nonzero" fill="rgb(11.764706%, 35.686275%, 30.980392%)" fill-opacity="0.501961" d="M 392.425781 247.460938 L 397.796875 247.460938 L 397.796875 98.433594 L 392.425781 98.433594 Z M 392.425781 247.460938 "/>
<path fill-rule="nonzero" fill="rgb(11.764706%, 35.686275%, 30.980392%)" fill-opacity="0.501961" d="M 399.03125 247.460938 L 404.402344 247.460938 L 404.402344 105.996094 L 399.03125 105.996094 Z M 399.03125 247.460938 "/>
<path fill-rule="nonzero" fill="rgb(11.764706%, 35.686275%, 30.980392%)" fill-opacity="0.501961" d="M 405.640625 247.460938 L 411.011719 247.460938 L 411.011719 156.289062 L 405.640625 156.289062 Z M 405.640625 247.460938 "/>
<path fill-rule="nonzero" fill="rgb(11.764706%, 35.686275%, 30.980392%)" fill-opacity="0.501961" d="M 411.605469 247.460938 L 416.976562 247.460938 L 416.976562 132.863281 L 411.605469 132.863281 Z M 411.605469 247.460938 "/>
<path fill-rule="nonzero" fill="rgb(11.764706%, 35.686275%, 30.980392%)" fill-opacity="0.501961" d="M 418.210938 247.460938 L 423.582031 247.460938 L 423.582031 148.566406 L 418.210938 148.566406 Z M 418.210938 247.460938 "/>
<path fill-rule="nonzero" fill="rgb(11.764706%, 35.686275%, 30.980392%)" fill-opacity="0.501961" d="M 424.605469 247.460938 L 429.976562 247.460938 L 429.976562 166.8125 L 424.605469 166.8125 Z M 424.605469 247.460938 "/>
<path fill-rule="nonzero" fill="rgb(11.764706%, 35.686275%, 30.980392%)" fill-opacity="0.501961" d="M 431.210938 247.460938 L 436.582031 247.460938 L 436.582031 125.804688 L 431.210938 125.804688 Z M 431.210938 247.460938 "/>
<path fill-rule="nonzero" fill="rgb(11.764706%, 35.686275%, 30.980392%)" fill-opacity="0.501961" d="M 437.601562 247.460938 L 442.972656 247.460938 L 442.972656 126.222656 L 437.601562 126.222656 Z M 437.601562 247.460938 "/>
<path fill-rule="nonzero" fill="rgb(11.764706%, 35.686275%, 30.980392%)" fill-opacity="0.501961" d="M 444.210938 247.460938 L 449.582031 247.460938 L 449.582031 156.871094 L 444.210938 156.871094 Z M 444.210938 247.460938 "/>
<path fill-rule="nonzero" fill="rgb(11.764706%, 35.686275%, 30.980392%)" fill-opacity="0.501961" d="M 450.816406 247.460938 L 456.1875 247.460938 L 456.1875 139.773438 L 450.816406 139.773438 Z M 450.816406 247.460938 "/>
<path fill-rule="nonzero" fill="rgb(11.764706%, 35.686275%, 30.980392%)" fill-opacity="0.501961" d="M 457.207031 247.460938 L 462.578125 247.460938 L 462.578125 122.054688 L 457.207031 122.054688 Z M 457.207031 247.460938 "/>
<g clip-path="url(#clip-11)">
<g fill="rgb(11.764706%, 35.686275%, 30.980392%)" fill-opacity="1">
<use xlink:href="#glyph-0-0" x="466.816406" y="119.011719"/>
<use xlink:href="#glyph-0-1" x="470.772423" y="119.011719"/>
<use xlink:href="#glyph-0-2" x="472.748695" y="119.011719"/>
<use xlink:href="#glyph-0-3" x="476.704711" y="119.011719"/>
</g>
</g>
<g clip-path="url(#clip-12)">
<path fill="none" stroke-width="1.066978" stroke-linecap="butt" stroke-linejoin="round" stroke="rgb(0%, 0%, 0%)" stroke-opacity="1" stroke-dasharray="1.066978 3.200935" stroke-miterlimit="10" d="M -343.421875 247.460938 L 893.695312 247.460938 "/>
</g>
<g clip-path="url(#clip-13)">
<path fill="none" stroke-width="1.066978" stroke-linecap="round" stroke-linejoin="round" stroke="rgb(13.333333%, 15.686275%, 19.215686%)" stroke-opacity="1" stroke-miterlimit="10" d="M 68.953125 299.347656 L 481.324219 299.347656 L 481.324219 22.675781 L 68.953125 22.675781 Z M 68.953125 299.347656 "/>
</g>
<path fill="none" stroke-width="1.066978" stroke-linecap="butt" stroke-linejoin="round" stroke="rgb(0%, 0%, 0%)" stroke-opacity="1" stroke-miterlimit="10" d="M 68.953125 299.347656 L 68.953125 22.675781 "/>
<g fill="rgb(100%, 100%, 100%)" fill-opacity="1">
<use xlink:href="#glyph-1-0" x="47.042969" y="251.53125"/>
<use xlink:href="#glyph-1-1" x="52.762969" y="251.53125"/>
<use xlink:href="#glyph-1-0" x="55.442969" y="251.53125"/>
</g>
<g fill="rgb(100%, 100%, 100%)" fill-opacity="1">
<use xlink:href="#glyph-1-2" x="47.042969" y="196.820312"/>
<use xlink:href="#glyph-1-1" x="52.762969" y="196.820312"/>
<use xlink:href="#glyph-1-3" x="55.442969" y="196.820312"/>
</g>
<g fill="rgb(100%, 100%, 100%)" fill-opacity="1">
<use xlink:href="#glyph-1-3" x="47.042969" y="142.105469"/>
<use xlink:href="#glyph-1-1" x="52.762969" y="142.105469"/>
<use xlink:href="#glyph-1-0" x="55.442969" y="142.105469"/>
</g>
<g fill="rgb(100%, 100%, 100%)" fill-opacity="1">
<use xlink:href="#glyph-1-4" x="47.042969" y="87.394531"/>
<use xlink:href="#glyph-1-1" x="52.762969" y="87.394531"/>
<use xlink:href="#glyph-1-3" x="55.442969" y="87.394531"/>
</g>
<g fill="rgb(100%, 100%, 100%)" fill-opacity="1">
<use xlink:href="#glyph-1-5" x="44.179688" y="32.679688"/>
<use xlink:href="#glyph-1-0" x="49.899688" y="32.679688"/>
<use xlink:href="#glyph-1-1" x="55.619688" y="32.679688"/>
<use xlink:href="#glyph-1-0" x="58.299688" y="32.679688"/>
</g>
<path fill="none" stroke-width="1.066978" stroke-linecap="butt" stroke-linejoin="round" stroke="rgb(100%, 100%, 100%)" stroke-opacity="1" stroke-miterlimit="10" d="M 66.210938 247.460938 L 68.953125 247.460938 "/>
<path fill="none" stroke-width="1.066978" stroke-linecap="butt" stroke-linejoin="round" stroke="rgb(100%, 100%, 100%)" stroke-opacity="1" stroke-miterlimit="10" d="M 66.210938 192.75 L 68.953125 192.75 "/>
<path fill="none" stroke-width="1.066978" stroke-linecap="butt" stroke-linejoin="round" stroke="rgb(100%, 100%, 100%)" stroke-opacity="1" stroke-miterlimit="10" d="M 66.210938 138.035156 L 68.953125 138.035156 "/>
<path fill="none" stroke-width="1.066978" stroke-linecap="butt" stroke-linejoin="round" stroke="rgb(100%, 100%, 100%)" stroke-opacity="1" stroke-miterlimit="10" d="M 66.210938 83.324219 L 68.953125 83.324219 "/>
<path fill="none" stroke-width="1.066978" stroke-linecap="butt" stroke-linejoin="round" stroke="rgb(100%, 100%, 100%)" stroke-opacity="1" stroke-miterlimit="10" d="M 66.210938 28.609375 L 68.953125 28.609375 "/>
<path fill="none" stroke-width="1.066978" stroke-linecap="butt" stroke-linejoin="round" stroke="rgb(0%, 0%, 0%)" stroke-opacity="1" stroke-miterlimit="10" d="M 68.953125 299.347656 L 481.324219 299.347656 "/>
<path fill="none" stroke-width="1.066978" stroke-linecap="butt" stroke-linejoin="round" stroke="rgb(100%, 100%, 100%)" stroke-opacity="1" stroke-miterlimit="10" d="M 90.378906 302.089844 L 90.378906 299.347656 "/>
<path fill="none" stroke-width="1.066978" stroke-linecap="butt" stroke-linejoin="round" stroke="rgb(100%, 100%, 100%)" stroke-opacity="1" stroke-miterlimit="10" d="M 168.160156 302.089844 L 168.160156 299.347656 "/>
<path fill="none" stroke-width="1.066978" stroke-linecap="butt" stroke-linejoin="round" stroke="rgb(100%, 100%, 100%)" stroke-opacity="1" stroke-miterlimit="10" d="M 245.941406 302.089844 L 245.941406 299.347656 "/>
<path fill="none" stroke-width="1.066978" stroke-linecap="butt" stroke-linejoin="round" stroke="rgb(100%, 100%, 100%)" stroke-opacity="1" stroke-miterlimit="10" d="M 323.722656 302.089844 L 323.722656 299.347656 "/>
<path fill="none" stroke-width="1.066978" stroke-linecap="butt" stroke-linejoin="round" stroke="rgb(100%, 100%, 100%)" stroke-opacity="1" stroke-miterlimit="10" d="M 401.71875 302.089844 L 401.71875 299.347656 "/>
<path fill="none" stroke-width="1.066978" stroke-linecap="butt" stroke-linejoin="round" stroke="rgb(100%, 100%, 100%)" stroke-opacity="1" stroke-miterlimit="10" d="M 479.5 302.089844 L 479.5 299.347656 "/>
<g fill="rgb(100%, 100%, 100%)" fill-opacity="1">
<use xlink:href="#glyph-1-2" x="78.9375" y="314.121094"/>
<use xlink:href="#glyph-1-0" x="84.6575" y="314.121094"/>
<use xlink:href="#glyph-1-2" x="90.377501" y="314.121094"/>
<use xlink:href="#glyph-1-5" x="96.097501" y="314.121094"/>
</g>
<g fill="rgb(100%, 100%, 100%)" fill-opacity="1">
<use xlink:href="#glyph-1-2" x="156.71875" y="314.121094"/>
<use xlink:href="#glyph-1-0" x="162.43875" y="314.121094"/>
<use xlink:href="#glyph-1-2" x="168.158751" y="314.121094"/>
<use xlink:href="#glyph-1-2" x="173.878751" y="314.121094"/>
</g>
<g fill="rgb(100%, 100%, 100%)" fill-opacity="1">
<use xlink:href="#glyph-1-2" x="234.5" y="314.121094"/>
<use xlink:href="#glyph-1-0" x="240.22" y="314.121094"/>
<use xlink:href="#glyph-1-2" x="245.940001" y="314.121094"/>
<use xlink:href="#glyph-1-6" x="251.660001" y="314.121094"/>
</g>
<g fill="rgb(100%, 100%, 100%)" fill-opacity="1">
<use xlink:href="#glyph-1-2" x="312.28125" y="314.121094"/>
<use xlink:href="#glyph-1-0" x="318.00125" y="314.121094"/>
<use xlink:href="#glyph-1-2" x="323.721251" y="314.121094"/>
<use xlink:href="#glyph-1-7" x="329.441251" y="314.121094"/>
</g>
<g fill="rgb(100%, 100%, 100%)" fill-opacity="1">
<use xlink:href="#glyph-1-2" x="390.277344" y="314.121094"/>
<use xlink:href="#glyph-1-0" x="395.997344" y="314.121094"/>
<use xlink:href="#glyph-1-2" x="401.717344" y="314.121094"/>
<use xlink:href="#glyph-1-3" x="407.437345" y="314.121094"/>
</g>
<g fill="rgb(100%, 100%, 100%)" fill-opacity="1">
<use xlink:href="#glyph-1-2" x="468.058594" y="314.121094"/>
<use xlink:href="#glyph-1-0" x="473.778594" y="314.121094"/>
<use xlink:href="#glyph-1-2" x="479.498594" y="314.121094"/>
<use xlink:href="#glyph-1-8" x="485.218595" y="314.121094"/>
</g>
<g fill="rgb(100%, 100%, 100%)" fill-opacity="1">
<use xlink:href="#glyph-2-0" x="30.816406" y="220.957031"/>
<use xlink:href="#glyph-2-1" x="30.816406" y="214.957031"/>
<use xlink:href="#glyph-2-2" x="30.816406" y="209.347031"/>
<use xlink:href="#glyph-2-3" x="30.816406" y="205.217031"/>
<use xlink:href="#glyph-2-1" x="30.816406" y="202.637031"/>
<use xlink:href="#glyph-2-4" x="30.816406" y="197.027031"/>
<use xlink:href="#glyph-2-3" x="30.816406" y="192.227032"/>
<use xlink:href="#glyph-2-5" x="30.816406" y="189.647032"/>
<use xlink:href="#glyph-2-6" x="30.816406" y="183.597032"/>
<use xlink:href="#glyph-2-7" x="30.816406" y="177.417032"/>
<use xlink:href="#glyph-2-8" x="30.816406" y="174.817032"/>
<use xlink:href="#glyph-2-1" x="30.816406" y="169.327032"/>
<use xlink:href="#glyph-2-9" x="30.816406" y="163.717032"/>
<use xlink:href="#glyph-2-1" x="30.816406" y="161.137032"/>
<use xlink:href="#glyph-2-2" x="30.816406" y="155.527032"/>
<use xlink:href="#glyph-2-3" x="30.816406" y="151.397032"/>
<use xlink:href="#glyph-2-1" x="30.816406" y="148.817032"/>
<use xlink:href="#glyph-2-9" x="30.816406" y="143.207032"/>
<use xlink:href="#glyph-2-7" x="30.816406" y="140.627033"/>
<use xlink:href="#glyph-2-10" x="30.816406" y="138.027033"/>
<use xlink:href="#glyph-2-11" x="30.816406" y="131.807033"/>
<use xlink:href="#glyph-2-1" x="30.816406" y="126.167033"/>
<use xlink:href="#glyph-2-9" x="30.816406" y="120.557033"/>
<use xlink:href="#glyph-2-7" x="30.816406" y="117.977033"/>
<use xlink:href="#glyph-2-12" x="30.816406" y="115.377033"/>
<use xlink:href="#glyph-2-13" x="30.816406" y="112.377033"/>
<use xlink:href="#glyph-2-14" x="30.816406" y="104.067033"/>
</g>
</svg>
